<svg xmlns="http://www.w3.org/2000/svg" viewBox="0 0 338.12 421.74"><defs><style>.cls-1,.cls-4,.cls-5,.cls-6{fill:none;}.cls-1,.cls-2,.cls-4,.cls-5,.cls-6,.cls-7{stroke:#211915;stroke-width:2px;}.cls-1,.cls-2,.cls-4{stroke-miterlimit:10;}.cls-2{fill:#080308;}.cls-3{fill:#211915;}.cls-4,.cls-5,.cls-7{stroke-linecap:round;}.cls-5,.cls-6,.cls-7{stroke-linejoin:round;}.cls-6{stroke-linecap:square;}.cls-7{fill:#040006;}</style></defs><title>V1code</title><g id="Lineas"><path class="cls-1" d="M374.06,235.55s-33.95-9.7-56.68,39.07c0,0-.09-.14-.27-.38-.16.57-.24.89-.24.89-1-1.76-2-3.42-3-5-9.87-12-39.05-42.2-68.74-23.3,0,0-28.09,11.74-24,53.61l-.14-.3c9.2,46.29,81.84,84.81,81.84,84.81,24,0,76.34-33.44,76.34-33.44S449.89,246.28,374.06,235.55Z" transform="translate(-165.31 -121.37)"/><path class="cls-1" d="M229.55,217.63s-76.34,3.83-61.27-42.13c0,0,7.4-18.12,36.51-8.17,0,0-19.66-22,13-44.42,0,0,40.85-11.49,32.68,71.74,0,0,78.13-76.59,141.19-2,0,0,25.53-72,44.68-46.47,0,0,10.47,10.73-1.78,25,0,0,37.78-15.06,27.06,24.77,0,0-12.26,19.91-47.23,17.11,0,0,30.38,41.61,3.57,89.87,0,0-26,40.08-39.32,48.25,0,0,70.72-105.19-5.11-115.91,0,0-33.95-9.7-56.68,39.06,0,0-35.74-51.06-72.25-27.83,0,0-28.09,11.75-24,53.62C220.62,300.1,191.26,238.06,229.55,217.63Z" transform="translate(-165.31 -121.37)"/><path class="cls-1" d="M266.32,333.85s-17.87-7.15-11.23-27.06,19.65-18.13,19.65-18.13,17.37,4.08,12.77,28.34C281.89,333.85,266.32,333.85,266.32,333.85Z" transform="translate(-165.31 -121.37)"/><path class="cls-2" d="M254.53,308.62" transform="translate(-165.31 -121.37)"/><path class="cls-3" d="M254.29,309.6c-10.63-2.65-12.59-14.84-12.07-17s1.8-.63,2-.18,1.31,13,10.56,15.25Z" transform="translate(-165.31 -121.37)"/><path class="cls-3" d="M260.29,297.91c-10.63-2.64-12.59-14.83-12.07-17s1.8-.63,2-.18,1.31,12.95,10.56,15.25Z" transform="translate(-165.31 -121.37)"/><path class="cls-2" d="M267.35,333.31s-10.05-32.45,3.59-42.92,2.8,41.3-1.81,42.75" transform="translate(-165.31 -121.37)"/><path class="cls-2" d="M267.35,333.31s-10.05-32.45,3.59-42.92,2.8,41.3-1.81,42.75" transform="translate(-165.31 -121.37)"/></g><g id="Capa_5" data-name="Capa 5"><path class="cls-1" d="M312.79,355.81s-18.77-3.19-18-13.53,9.44-16.26,18.64-16,18,7.55,20.17,17.38C332.45,348.4,322.49,356.57,312.79,355.81Z" transform="translate(-165.31 -121.37)"/><path class="cls-1" d="M294.85,341.63s18.32,12,38.75,2.05" transform="translate(-165.31 -121.37)"/></g><g id="Capa_4" data-name="Capa 4"><path class="cls-1" d="M364.45,326.3s19-3,17-23.88-15.12-22.06-15.12-22.06-17.84.12-18.76,24.79C349.27,322.82,364.45,326.3,364.45,326.3Z" transform="translate(-165.31 -121.37)"/><path class="cls-2" d="M381.56,304.33" transform="translate(-165.31 -121.37)"/><path class="cls-3" d="M379.18,294.56c10.81-1.81,13.71-13.81,13.36-16s-1.75-.77-2-.34-2.32,12.81-11.72,14.39Z" transform="translate(-165.31 -121.37)"/><path class="cls-3" d="M374.05,285.91c9.82-4.85,9.15-17.17,8.18-19.19s-1.9-.23-2,.24,1.46,12.94-7.09,17.16Z" transform="translate(-165.31 -121.37)"/></g><g id="Capa_6" data-name="Capa 6"><path class="cls-4" d="M310.57,490.19s16.52,23.49-7.14,38.9c0,0-9.62-2.73,0-25.45C304.7,497.34,307.94,489.94,310.57,490.19Z" transform="translate(-165.31 -121.37)"/><path class="cls-4" d="M298.06,483.81s-13.78,1.45-15.66,15.91-1,23.49,2.13,24.34,16-10.46,16.51-17.7S305,487.3,298.06,483.81Z" transform="translate(-165.31 -121.37)"/><path class="cls-4" d="M281,472.15s-16.68,3-15.83,20.85,5.53,21,5.53,21,4.85.43,8.94-6.55c0,0,9.36-20.17,7.91-22.81C287.53,484.66,286.6,471.21,281,472.15Z" transform="translate(-165.31 -121.37)"/><path class="cls-4" d="M378.74,504.15s-7.91,10.55-7.31,20.51,3.14,13.11,3.14,13.11,5.88,0,7.92-8.86-2-24-2-24Z" transform="translate(-165.31 -121.37)"/><path class="cls-4" d="M369.64,499.89s-16.17,10.3-15.32,23.24,3,18.89,5,19,11.23-10.39,11.23-12.34,2.9-19.66,2.22-22.39S371.68,499.89,369.64,499.89Z" transform="translate(-165.31 -121.37)"/><path class="cls-4" d="M349.81,499.13c-.26,0-14,4.42-14,21.87s7,15.66,7,15.66,12-9.62,12.89-19.32S356.19,499.81,349.81,499.13Z" transform="translate(-165.31 -121.37)"/></g><g id="Capa_7" data-name="Capa 7"><path class="cls-5" d="M303.09,406.87c-.26-.17-10-24.34-27.15-13.7,0,0-6.9,9.45,7.83,13.7,0,0-12.94,1.62-5.37,11.49,0,0,11,4.85,25.11-11.23" transform="translate(-165.31 -121.37)"/><path class="cls-5" d="M330.53,401.64s-13.79,4.85-7,25c0,0,10.6-.38,8.43-10.09,0,0,3.7,13.15,9.19,6.64S340.62,401.51,330.53,401.64Z" transform="translate(-165.31 -121.37)"/><path class="cls-6" d="M353.77,382.74c-.32.34,6,37.28,19,20.05,0,0,8.42-6.51-3.58-11.24,0,0,13.15,1.66,11.88-3.32S360.28,375.72,353.77,382.74Z" transform="translate(-165.31 -121.37)"/><path class="cls-5" d="M305.26,418s-18.52,1-7,14.81c0,0,19.75-5.49,7.77-14.81" transform="translate(-165.31 -121.37)"/><path class="cls-7" d="M303.93,418.66s-7,11.46-5.71,14.14,8.44-10,7.73-13.12S303.93,418.66,303.93,418.66Z" transform="translate(-165.31 -121.37)"/><path class="cls-5" d="M299,439.64s-17.58,5.88-2.86,16.14c0,0,17.59-10.51,3.58-16.33" transform="translate(-165.31 -121.37)"/><path class="cls-7" d="M297.93,440.65s-3.73,12.91-1.76,15.15,5.49-11.9,4-14.7S297.93,440.65,297.93,440.65Z" transform="translate(-165.31 -121.37)"/></g><g id="Capa_8" data-name="Capa 8"><path class="cls-5" d="M276.53,404.76s-25.65,31.24-2.21,70.06" transform="translate(-165.31 -121.37)"/><path class="cls-5" d="M316.18,507s5.63,9.54,19.59,7.07" transform="translate(-165.31 -121.37)"/><path class="cls-5" d="M381.3,508.24s37.7-15.75,37.53-38.39c0,0,8.51,19.75,25,7.49,0,0,4.43-9.53-3.23-12.94,0,0,18.38-11.06,0-18,0,0-12.77,1-19.07,10.55,0,0,4.16-28.17-19.74-46.8,0,0,21.45,31.15,59.91,7,13.58-22.86-22.17-30-22.17-30s46.09-23.37,11.88-41.75c0,0-42.47-2.72-60.77,46.85,0,0-7.78-28.18-25.55-32.28" transform="translate(-165.31 -121.37)"/><path class="cls-5" d="M301.41,403.62s5.57,9,23.79,2" transform="translate(-165.31 -121.37)"/><path class="cls-5" d="M333.6,402.09s32-28.6,26.45-39.31" transform="translate(-165.31 -121.37)"/><path class="cls-5" d="M282.32,390.47S285,379.62,291.08,378" transform="translate(-165.31 -121.37)"/><path class="cls-5" d="M271.54,412.72s-24.11-60.75-56.8-61.56.69,37.5.69,37.5-35.58,2.9-21.45,30.39C207.6,432.79,271.54,412.72,271.54,412.72Z" transform="translate(-165.31 -121.37)"/><path class="cls-5" d="M471.09,328.74s11.74,3.41,4.76,21.11" transform="translate(-165.31 -121.37)"/><path class="cls-5" d="M491.17,322.45c.34.51,17.87,14.81,8.51,25.87" transform="translate(-165.31 -121.37)"/><path class="cls-2" d="M267.35,333.31s-10.05-32.45,3.59-42.92,2.8,41.3-1.81,42.75" transform="translate(-165.31 -121.37)"/><path class="cls-2" d="M362.06,286.87s-8.85,15.18,1,39c11.9-.57,4.4-45.28,4.4-45.28S364.06,281.83,362.06,286.87Z" transform="translate(-165.31 -121.37)"/></g></svg>