<svg xmlns="http://www.w3.org/2000/svg" viewBox="0 0 704.13 580.44"><defs><style>.cls-1{fill:#6f3c48;}.cls-2{fill:#804350;}.cls-3,.cls-55{fill:#ffcb62;}.cls-4{fill:#daab56;}.cls-100,.cls-101,.cls-109,.cls-116,.cls-12,.cls-120,.cls-121,.cls-134,.cls-135,.cls-138,.cls-139,.cls-142,.cls-149,.cls-151,.cls-155,.cls-16,.cls-161,.cls-163,.cls-166,.cls-17,.cls-22,.cls-29,.cls-30,.cls-33,.cls-37,.cls-38,.cls-39,.cls-40,.cls-5,.cls-50,.cls-56,.cls-59,.cls-62,.cls-66,.cls-67,.cls-70,.cls-81,.cls-86,.cls-89,.cls-96{fill:none;}.cls-5{stroke:#945d30;}.cls-100,.cls-109,.cls-110,.cls-111,.cls-113,.cls-116,.cls-12,.cls-120,.cls-121,.cls-122,.cls-123,.cls-134,.cls-135,.cls-138,.cls-139,.cls-142,.cls-146,.cls-149,.cls-151,.cls-152,.cls-157,.cls-161,.cls-162,.cls-163,.cls-164,.cls-17,.cls-18,.cls-22,.cls-37,.cls-38,.cls-5,.cls-55,.cls-59,.cls-62,.cls-66,.cls-67,.cls-70,.cls-71,.cls-73,.cls-75,.cls-77,.cls-81,.cls-84,.cls-85,.cls-86,.cls-89,.cls-90,.cls-91,.cls-93,.cls-96{stroke-miterlimit:10;}.cls-100,.cls-101,.cls-109,.cls-110,.cls-111,.cls-12,.cls-121,.cls-122,.cls-123,.cls-124,.cls-134,.cls-135,.cls-138,.cls-139,.cls-142,.cls-146,.cls-149,.cls-151,.cls-152,.cls-155,.cls-157,.cls-16,.cls-161,.cls-162,.cls-163,.cls-164,.cls-166,.cls-17,.cls-18,.cls-22,.cls-29,.cls-33,.cls-37,.cls-38,.cls-39,.cls-40,.cls-41,.cls-42,.cls-45,.cls-5,.cls-50,.cls-55,.cls-56,.cls-59,.cls-62,.cls-66,.cls-67,.cls-70,.cls-71,.cls-73,.cls-75,.cls-77,.cls-81,.cls-84,.cls-85,.cls-86,.cls-89,.cls-90,.cls-91,.cls-93,.cls-96{stroke-width:2px;}.cls-6{fill:#dbc0ac;}.cls-7{fill:#ddc1ae;}.cls-8{fill:#dcc0ad;}.cls-9{fill:#ffe5ce;}.cls-10{fill:#884d30;}.cls-11{fill:#9e5730;}.cls-12{stroke:#784440;}.cls-13{fill:#ccb1a1;}.cls-14{fill:#c1ab9a;}.cls-15{fill:#bba394;}.cls-16,.cls-17,.cls-77{stroke:#583030;}.cls-101,.cls-124,.cls-155,.cls-16,.cls-56{stroke-linejoin:bevel;}.cls-18,.cls-36{fill:#7e8c79;}.cls-18{stroke:#525b50;}.cls-19{fill:#a3b49a;}.cls-20,.cls-90{fill:#605967;}.cls-21{fill:#6c6374;}.cls-22{stroke:#363537;}.cls-23{fill:#67434c;}.cls-24{fill:#fed7b8;}.cls-25{fill:#764853;}.cls-26{fill:#8e6b73;}.cls-27{fill:#5a4246;}.cls-28{fill:#64474c;}.cls-29,.cls-33,.cls-67,.cls-75{stroke:#000;}.cls-166,.cls-29,.cls-33,.cls-39,.cls-40,.cls-41,.cls-42,.cls-45,.cls-50{stroke-linejoin:round;}.cls-31{fill:#564043;}.cls-32{fill:#8d6a73;}.cls-101,.cls-138,.cls-155,.cls-166,.cls-33,.cls-39,.cls-40,.cls-41,.cls-42,.cls-45,.cls-50,.cls-56{stroke-linecap:round;}.cls-34{fill:#adadad;}.cls-35{fill:#915735;}.cls-37{stroke:#080409;}.cls-38,.cls-39{stroke:#555d53;}.cls-40,.cls-41{stroke:#667264;}.cls-41{fill:#d2dec2;}.cls-42{fill:#d2a152;}.cls-42,.cls-45{stroke:#885030;}.cls-43{fill:#a7504c;}.cls-44{fill:#c55955;}.cls-45{fill:#ffcd63;}.cls-46{fill:#ffa36f;}.cls-47{fill:#ffe7d0;}.cls-48{fill:#db8a5f;}.cls-49{fill:#ff9e6b;}.cls-50{stroke:#5e3030;}.cls-51{fill:#ffa26e;}.cls-52{fill:#ffecd3;}.cls-53{fill:#dd8e62;}.cls-54{fill:#ffa46f;}.cls-55,.cls-56{stroke:#635f59;}.cls-57{fill:#f0f0f0;}.cls-58{fill:#c9c9c9;}.cls-59{stroke:#f0f0f0;}.cls-60{fill:#d6d6d6;}.cls-61{fill:#d5d5d5;}.cls-62{stroke:#6b6b6b;}.cls-63{fill:#c26757;}.cls-64{fill:#e77661;}.cls-65{fill:#f7a99e;}.cls-66{stroke:#8f5730;}.cls-68{fill:#d7815d;}.cls-69{fill:#b77053;}.cls-70{stroke:#673936;}.cls-71{fill:#f5ca6d;stroke:#98453f;}.cls-72{fill:#ceab62;}.cls-73{fill:#ce7765;stroke:#623435;}.cls-74{fill:#b0695b;}.cls-75{fill:#76423a;}.cls-76{fill:#88473d;}.cls-77{fill:#6e6477;}.cls-78{fill:#c8704c;}.cls-79{fill:#887956;}.cls-80{fill:#786a4f;}.cls-81{stroke:#315959;}.cls-82{fill:#f5e7b2;}.cls-83,.cls-84{fill:#cdc197;}.cls-84{stroke:#606260;}.cls-85{fill:#776a4f;stroke:#446863;}.cls-86{stroke:#5a3131;}.cls-87{fill:#824d5c;}.cls-88{fill:#975567;}.cls-89{stroke:#5f355b;}.cls-90,.cls-91{stroke:#30315a;}.cls-91{fill:#9a91a8;}.cls-92{fill:#6f6275;}.cls-93,.cls-94{fill:#e0b79d;}.cls-93{stroke:#895430;}.cls-95{fill:#fffaed;}.cls-96{stroke:#845834;}.cls-97{fill:#ffd9b8;}.cls-98{fill:#dcaf58;}.cls-99{fill:#ffd364;}.cls-100,.cls-101{stroke:#8d3030;}.cls-102{fill:#b15c57;}.cls-103{fill:#975350;}.cls-104{fill:#985350;}.cls-105{fill:#ffe1c8;}.cls-106{fill:#cb8e67;}.cls-107{fill:#f2a675;}.cls-108{fill:#d09269;}.cls-109,.cls-110,.cls-123,.cls-124{stroke:#5a3030;}.cls-110{fill:#f49749;}.cls-111,.cls-119{fill:#828b7a;}.cls-111{stroke:#5d625b;}.cls-112{fill:#a7b49a;}.cls-113{fill:#b05c57;}.cls-113,.cls-116{stroke:#5c3031;}.cls-114{fill:#eea373;}.cls-115{fill:#fef0d9;}.cls-117{fill:#f2a374;}.cls-118{fill:#ffe2c9;}.cls-120{stroke:#f2a374;}.cls-121{stroke:#5d6259;}.cls-122{fill:#d5dcc2;stroke:#7c8375;}.cls-123,.cls-124{fill:#f79a49;}.cls-125{fill:#ca8d67;}.cls-126{fill:#eed2bf;}.cls-127{fill:#f5c5a3;}.cls-128{fill:#a8816b;}.cls-129{fill:#c69579;}.cls-130{fill:#8f433a;}.cls-131{fill:#a7816b;}.cls-132{fill:#fb9c4a;}.cls-133{fill:#d08645;}.cls-134{stroke:#434448;}.cls-135{stroke:#424448;}.cls-136{fill:#c8997b;}.cls-137{fill:#ff9f4a;}.cls-138,.cls-139{stroke:#484548;}.cls-140{fill:#968072;}.cls-141{fill:#aba9b0;}.cls-142{stroke:#333;}.cls-143{fill:#803d3f;}.cls-144{fill:#bd8182;}.cls-145{fill:#eba3ad;}.cls-146{fill:#a4b69b;}.cls-146,.cls-155,.cls-163,.cls-166{stroke:#545d51;}.cls-147{fill:#c4bd9d;}.cls-148{fill:#f1eccd;}.cls-149{stroke:#47483b;}.cls-150{fill:#c5be9e;}.cls-151{stroke:#45483a;}.cls-152{fill:#be8182;stroke:#6a3232;}.cls-153{fill:#c9c2a1;}.cls-154{fill:#7d8b77;}.cls-156,.cls-162{fill:#303030;}.cls-157{fill:#8c3130;stroke:#933030;}.cls-158{fill:#cdcda5;}.cls-159{fill:#cccca4;}.cls-160{fill:#ffffcb;}.cls-161,.cls-162,.cls-164{stroke:#303030;}.cls-164{fill:#2f2f2f;}.cls-165{fill:#000001;}</style></defs><title>Recurso 1</title><g id="Capa_2" data-name="Capa 2"><g id="Capa_22" data-name="Capa 22"><path class="cls-1" d="M480.75,116.42s-15.5-34-13.83-40.29-57.33,18.25-57.33,18.25l15.91,31.33Z"/><path class="cls-1" d="M519.59,82.13s-1.93,5.34-4.16,12.2c6.66,5.69,15.53,12.86,18,13,4.14.17-4.77,13.67-4.77,13.67L510,113.11c-1.08,4.6-1.65,8.39-1.18,10.1,1.75,6.36,30.65,10.75,30.65,10.75s19.13-35.83,18.8-41.83S519.59,82.13,519.59,82.13Z"/><path class="cls-2" d="M534.17,107.29c-2.57-.1-11.71-7.27-18.58-13-2,5.94-4.21,13-5.6,18.78L529.25,121S538.43,107.46,534.17,107.29Z"/><path class="cls-3" d="M420.25,77.79c-3.31,0-3-7.42-2-14.06-12.55,4.07-24.85,9.69-24.34,16.73,0,0,.33,15.33,6.67,16a119.61,119.61,0,0,0,41.75-2.38l-2.77-16.29Z"/><path class="cls-4" d="M472.78,56.46s-25.19-2-28.86,0c-1.78,1-13.83,3.43-25.66,7.27-1,6.64-1.32,14.06,2,14.06h19.32l2.77,16.29a132.4,132.4,0,0,0,37.26-15Z"/><path class="cls-5" d="M395,88.59s48.44-2.45,81.49-19.92"/><path class="cls-5" d="M393.87,79.85s.33,15.33,6.66,16,40.37,5.33,79-17.33l-6.83-22.67s-25.19-2-28.85,0S392.87,66.18,393.87,79.85Z"/><path class="cls-6" d="M429.11,10.13c-.85-2.31-1.36-3.67-1.36-3.67S425.18,2.68,414.38,1L418,13.8A23,23,0,0,0,429.11,10.13Z"/><path class="cls-7" d="M423.35,33.05c4.63.18,9.3.2,13.82,0-3.16-9.37-6.33-18.16-8.06-22.92A23,23,0,0,1,418,13.8Z"/><path class="cls-8" d="M418,13.8,414.38,1A74.05,74.05,0,0,0,403,.21c-16.27,0-18.84,6.62-19.2,9.34A131.72,131.72,0,0,0,413,14,39.36,39.36,0,0,0,418,13.8Z"/><path class="cls-9" d="M418,13.8a39.36,39.36,0,0,1-5,.16,131.72,131.72,0,0,1-29.2-4.41,5.12,5.12,0,0,0-.05,1.16s6,8.63,12.94,19.85c7.52,1.05,17,2.11,26.66,2.49Z"/><path class="cls-10" d="M423.35,33.05l11.27,40.24c5.48-1,10.49-2.45,11.63-4.62,1.46-2.75-3.8-20-9.08-35.62C432.65,33.25,428,33.23,423.35,33.05Z"/><path class="cls-11" d="M396.69,30.56c9.82,15,21.54,34.59,22.75,44.53a166.33,166.33,0,0,0,17.26-1.8L424.82,33.05C414.62,32.67,404.63,31.61,396.69,30.56Z"/><path class="cls-12" d="M384.22,11.5s32.5,47,34.5,64.37c0,0,25.25-1.19,28-6.41s-18.5-62.21-18.5-62.21S424,1,403.47,1,384.22,11.5,384.22,11.5Z"/><path class="cls-12" d="M383.8,9.55s28.88,7.1,34.17,4.25a94.82,94.82,0,0,0,10.25-6.55"/><path class="cls-12" d="M396.69,30.56s30.65,4.82,40.48,2.49"/><path class="cls-3" d="M535.75,65.93c-7.53-2-15-2.26-21.25.78l-5.69,11.92S522,91.44,538.4,99.47l3.72-14.36C534.91,82.38,534.72,73.05,535.75,65.93Z"/><path class="cls-4" d="M578.5,92.22c-1.45-2.38-22.46-20.84-42.75-26.29-1,7.12-.84,16.45,6.37,19.18L538.4,99.47c9.89,4.83,21,7.93,31.1,5.49C569.5,105,580.5,95.49,578.5,92.22Z"/><path class="cls-5" d="M508.81,79.39s33.69,32.83,60.69,26.33a66,66,0,0,0,5.25-5.15c2.5-2.77,4.75-6,3.75-7.59-2-3.26-40.75-36.76-64-25.51l-.46,1Z"/><path class="cls-5" d="M514.5,70.21s29.18,31.57,56.09,31.54l2.66.42"/><path class="cls-7" d="M597.71,33.52a17.27,17.27,0,0,0-11.46-9.81l0,0c2,4.14,4.46,9.38,6.16,13.6C594.26,35.9,596,34.62,597.71,33.52Z"/><path class="cls-7" d="M592.38,37.33c-1.7-4.22-4.15-9.46-6.16-13.6-.31.16-3,1.53-6.91,3.92a117.49,117.49,0,0,0,9.47,12.52Q590.63,38.67,592.38,37.33Z"/><path class="cls-13" d="M594.25,44.71c.64-.48-.3-3.49-1.87-7.38q-1.75,1.34-3.6,2.84C591.5,43.24,593.66,45.15,594.25,44.71Z"/><path class="cls-9" d="M585,43.32a70.54,70.54,0,0,1-3.78-12.87c-.65-.93-1.29-1.87-1.9-2.8-3.13,1.9-7.08,4.45-11.29,7.55a39.34,39.34,0,0,0,6,17.88C577.7,49.68,581.41,46.35,585,43.32Z"/><path class="cls-14" d="M588.78,40.17a113.6,113.6,0,0,1-7.57-9.72A70.54,70.54,0,0,0,585,43.32C586.28,42.23,587.54,41.17,588.78,40.17Z"/><path class="cls-11" d="M576.5,60a33.47,33.47,0,0,1-5.78-16c-11.72,8-25.61,20-29.2,34.07a17.84,17.84,0,0,0,6.91,7.62C552.73,81.48,564.4,70.34,576.5,60Z"/><path class="cls-11" d="M574,53.08a39.34,39.34,0,0,1-6-17.88c-12.16,8.92-26.56,22.39-30.28,38.09a19.55,19.55,0,0,0,7.16,8.52C549.37,77.15,561.46,64.69,574,53.08Z"/><path class="cls-15" d="M595.05,56.28A38.81,38.81,0,0,1,599.71,55s2.26-10.74-1.47-20.24c-.17-.42-.35-.8-.53-1.19-1.67,1.1-3.45,2.38-5.33,3.81,1.57,3.89,2.51,6.9,1.87,7.38s-2.75-1.47-5.47-4.54c-1.24,1-2.5,2.06-3.79,3.15C587.23,48.72,590.46,53.8,595.05,56.28Z"/><path class="cls-7" d="M585,43.32c-3.58,3-7.29,6.36-11,9.76a43,43,0,0,0,8.51,9.71,52.06,52.06,0,0,1,12.52-6.51C590.46,53.8,587.23,48.72,585,43.32Z"/><path class="cls-10" d="M574,53.08c-12.56,11.61-24.65,24.07-29.12,28.73,3.41,2.34,8.27,4.28,15.1,4.38,0,0,8.84-13.91,22.53-23.4A43,43,0,0,1,574,53.08Z"/><path class="cls-16" d="M538.61,70.21c6.67-26.54,47.61-46.48,47.61-46.48C597.53,26.16,599,37,600.39,40.17S599.71,55,599.71,55c-5.05-1.51-21,10.66-21,10.66-3,.15-20.49,20.58-20.49,20.58-20.33-1.1-20.52-16-20.52-16Z"/><path class="cls-17" d="M568,35.2s3.65,24.23,15.22,27.19"/><path class="cls-17" d="M581.21,26.41s.63,20.35,13.84,29.87"/></g><g id="Capa_15" data-name="Capa 15"><path class="cls-18" d="M505.13,126.73s-36.54-22.62-62.88-23.44-69,4.17-85.66,15.17-22.67,50.68-22.67,52.34,43.33,77.33,43.33,77.33l62.32,36.21,84.25,19.41S560.08,268,562.24,260s7.68-78.19,4.35-86.37-10.09-18.34-13.25-20.87S505.13,126.73,505.13,126.73Z"/><polyline class="cls-19" points="369.38 119.96 390.25 119.96 379.82 114.59 368.5 119.96"/></g><g id="Layer_7" data-name="Layer 7"><path class="cls-20" d="M442.25,479.71l-7.18-10.25-7.8-9.58-119.54-8.56L305.25,457s10.3,7.25,11.21,7,2.46,11.75,2.46,11.75l6.71,2.41c-3.39-8.19-6.95-17.06-4.51-12.41,4.17,8,72.44,12.25,72.44,12.25a32.79,32.79,0,0,0,2.34,2.75c1,1-4.79,6.25-4.79,6.25L385,495.74,402.22,499Z"/><path class="cls-21" d="M396.54,480.25a32.73,32.73,0,0,1-2.38-2.84s-69.35-4.42-73.59-12.63c-2.47-4.79,1.14,4.36,4.59,12.8l1,.35L331,485.4l54.43,10.34,6.21-9.05S397.57,481.28,396.54,480.25Z"/><path class="cls-22" d="M305.25,456.85s10.3,7.25,11.21,7,2.46,11.75,2.46,11.75l7.65,2.75,4.84,7.25,70.81,13.25,40-19.25-7.18-10.25-7.8-9.58-119.54-8.56Z"/><path class="cls-22" d="M433.78,466.71s13.22,19.94,19.35,18.86c0,0-1.63,7,0,7.28s59.87,18,85.25,9.7,37.12-12.39,37.12-12.39L568,450.54l-15.25-21.28L499,439.5l-63.25,17.17Z"/><path class="cls-20" d="M568,450.54l-15.25-21.28L499,439.5l-63.25,17.17-2,10s1.33,2,3.34,4.7l2.13-.66S489,463.68,492,461.29s0,1.38,0,1.38-16.75,15.09-14,27.49H452.43c-.08,1.39.05,2.58.7,2.69,1.62.27,59.87,18,85.25,9.7s37.12-12.39,37.12-12.39Z"/><path class="cls-21" d="M493.24,461.74s3.07-4,0-1.45-53.94,10-53.94,10l-2.18.7c4.42,6.13,12.09,15.7,16.37,14.92a35.63,35.63,0,0,0-.71,4.83h26.14C476.11,477.65,493.24,461.74,493.24,461.74Z"/></g><g id="Layer_9" data-name="Layer 9"><path class="cls-23" d="M329.67,481.71s46.68,6.5,55.68,2l6.83,8,10.33-10.58,34.75-5.34,7.83,8s-3.66,6.79-3.41,9.21c0,0,13.41,5.92,12.83,21.17S431,543.71,431,543.71L374.43,563H342.51s-33.83-6.17-35.5-9.83-4.67-11.17-2-16.34c0,0,2-19,5.5-20.16,0,0,3.5-12.5,12.33-15.34s30,1.84,30,1.84S331.5,489,329.67,481.71Z"/><path class="cls-24" d="M444.14,482.87l-7-7.08-34.75,5.34-10.33,10.58-6.83-8c-9,4.5-55.68-2-55.68-2,.84,3.31,5.74,8.06,10.82,12.25C364,495.14,420.35,496.36,444.14,482.87Z"/><path class="cls-25" d="M321.38,508.47c-3.88,4.84-2.29,19.16-.84,20.66s8.09,2.83,8.09,2.83c1.37,1,29.79,3.17,31,3.33s24-1,32.16-3.83,7.67-18.67,7.34-18.17-17.71,0-17.71,0l-.95-2.16,13.32-7.84c1.4-2.43-1.45-5.79-5.76-9.15-18.57.92-36.63.37-47.59-.18,6.05,5,12.35,9.17,12.35,9.17s-12.75-2.81-22.58-2.75A81.21,81.21,0,0,0,321.38,508.47Z"/><path class="cls-26" d="M327.75,506c1-1,26.84,0,26.84,0s4-2.17,3-5.33c-.71-2.28-12.09-5.76-18.43-7.54a167,167,0,0,0,13.66,10.27s-21.16-4.67-30-1.83-12.33,15.33-12.33,15.33a1.69,1.69,0,0,0-.59.38l-.39,15.43C310.66,512.47,326.8,506.92,327.75,506Z"/><path class="cls-27" d="M357.76,552c-30.38,5-47.77-8.17-53.7-13.91-.62,5.1,1.6,11,2.95,14.23,1.67,4,35.5,10.62,35.5,10.62h31.92l43.68-16.05c4.4-4.31,8.71-8.45,12.17-11.6C416.79,541.07,387.28,547.15,357.76,552Z"/><path class="cls-28" d="M344.92,552.79c35.83-1,74.25-9,89.21-18.73s-21.71,7.9-31,8.57-33,7.66-50.84,4.5c0,0-2.69,1.16-17.26,0-10.59-.85-23.93-6.18-30.44-9a10.59,10.59,0,0,0-.54,2.57C309.11,545.77,320.82,553.47,344.92,552.79Z"/><path class="cls-29" d="M329.67,481.71s46.68,6.5,55.68,2l6.83,8,10.33-10.58,34.75-5.34,7.83,8s-3.66,6.79-3.41,9.21c0,0,13.41,5.92,12.83,21.17S431,543.71,431,543.71L374.43,563H342.51s-33.83-6.17-35.5-9.83-4.67-11.17-2-16.34c0,0,2-19,5.5-20.16,0,0,3.5-12.5,12.33-15.34s30,1.84,30,1.84S331.5,489,329.67,481.71Z"/><path class="cls-29" d="M304.66,537.59s11.84,5.87,16.72,6.37,42,3.33,48.37,1.67,26-.75,45.17-8,21.17-10,21.17-10"/><path class="cls-29" d="M348.42,508.29s8.67.17,14.33-2.66"/></g><g id="Layer_10" data-name="Layer 10"><path class="cls-29" d="M480.46,521.94l0,0C480.56,522,480.53,522,480.46,521.94Z"/><path class="cls-24" d="M513.25,512.46c18-1.5,48.5-2.11,52.25-4.68,2.7-1.84-12.19-7.14-20.79-10l-1.46.15s-10.69,5.25-26.47,5.25-47-2.75-58.53-7.25c0,0,3.23,4,7.23,8.78C476.57,507.79,499.88,513.58,513.25,512.46Z"/><path class="cls-30" d="M480.46,521.94l0,0C480.56,522,480.53,522,480.46,521.94Z"/><path class="cls-29" d="M480.46,521.94l0,0C480.56,522,480.53,522,480.46,521.94Z"/><path class="cls-30" d="M480.46,521.94l0,0C480.56,522,480.53,522,480.46,521.94Z"/><path class="cls-31" d="M550.5,561.74c-2.5,1.77-29.25,7-61.49,10.22-27.25,2.75-59.88-14-69.32-19.21l-3.51,9.71S453,577.21,463.75,579s37.75.75,40.5,0S515,574,515,574l9.5,3s41.75-5.5,46.5-14.75c0,0,1.53-7.45-4.59-16C559.53,553.13,551.84,560.79,550.5,561.74Z"/><path class="cls-25" d="M508.25,534.46l15.22-22.71c-3.64.22-7.11.45-10.22.71-13.37,1.12-36.68-4.67-47.77-7.72,6.13,7.4,14.06,16.82,15,17.2.07,0,.1,0,0,0l0,0c-.54-.18-4.78-1.34-10.12-2.69l4.54,5s-21-6.86-25.43-5.8a25.48,25.48,0,0,0-8.55,4.66l30.94,17.39Z"/><path class="cls-23" d="M568,534.46l-6-5-1.75,1.5,14.25-30.25L562,496l-17.29,1.85c8.6,2.83,23.49,8.13,20.79,10-2,1.35-11.24,2.15-22.21,2.83-1.81,6.61-5,19.49-3.7,22.79,0,0,6.26,1.73,5.92,5.49s-12.1,13.51-12.1,13.51-26.75,6-32.75,5.24-61.75-12-61.75-13c0-.55-1.31-9.62-2.17-17.83A41.47,41.47,0,0,0,426,547.71a11.82,11.82,0,0,1-3.81-3.74c-.41,1.52-.78,3.09-1.09,4.74l-1.45,4c9.44,5.24,42.07,22,69.32,19.21,32.24-3.25,59-8.45,61.49-10.22,1.34-1,9-8.61,15.91-15.53a33.31,33.31,0,0,0-3.16-3.75Z"/><path class="cls-25" d="M436.09,525c.88,9.1,2.2,19.16,2.2,19.78,0,1.1,56.59,13.58,62.68,14.39s33.24-5.8,33.24-5.8,11.93-10.81,12.28-15-6-6.08-6-6.08c-1.35-3.66,1.92-17.94,3.76-25.27-6.5.44-13.58.83-20.12,1.26l-15.44,25.19-37,6.65-31.4-19.29A40,40,0,0,0,436.09,525Z"/><path class="cls-32" d="M426.11,549.14c4.11-20.86,19.34-29.46,23.88-30.56s25.93,6,25.93,6l-4.63-5.18c-8.87-2.3-20.71-5.14-24.13-5-5.39.24-19.25,9.1-24.93,30.78A12.35,12.35,0,0,0,426.11,549.14Z"/><path class="cls-29" d="M458.59,495.47s21,25.75,22.25,26S452.69,513.72,447,514s-20.9,10-25.54,34.25l-5,13.75s36.82,14.75,47.57,16.5,37.75.75,40.5,0,10.75-5,10.75-5l9.5,3s41.75-5.5,46.5-14.75c0,0,2-9.75-7.75-19.75l4.75-8-6-5-1.75,1.5,14.25-30.25-12.5-4.75-18.75,2s-10.69,5.25-26.47,5.25S470.09,500,458.59,495.47Z"/><path class="cls-33" d="M492.68,532.08s-11.3-1-14.18-6.49,1.34-3.12,1.34-3.12"/><path class="cls-33" d="M566.41,546.21,550.5,561.74s-28.93,7.43-37.12,7.29-37,6.73-50.25.83c0,0-17.66-4.6-19.93-6.16s-23.28-11.18-23.28-11.18"/></g><g id="Capa_19" data-name="Capa 19"><polygon class="cls-34" points="297.92 399.61 297.92 421.38 314.75 421.38 317.92 399.61 297.92 399.61"/><path class="cls-35" d="M296.92,400.63s9.5,22.83,9,24.66-40.67,0-40.67,0L249.59,413.8l.66-15.17,23.8-.84Z"/><path class="cls-36" d="M270.59,405.46c0-1.17,3.83,4.78,13,3.22s22.08-2.55,25.71-5.72,12.24-73.74,12.24-73.74-.55-28-8-30.26c-5.52-1.64-22.81-9.43-31.49-13.41-10.3,11.52-12.9,37.91-12.9,37.91S260,341.21,253.25,326c-4.93-11.14,14.69-31.62,25.62-41.85l-1.95-.9s-31.33,16.72-33.67,33.32,0,60.18,0,60.18l-3.66,6.75s-10-2.43-12.34-1c-.55.33-1.31.86-2.15,1.48,8.62,2,25.32,6,27.37,7.82,2.78,2.5-9.47,0-9.47,0s-10,11-2.25,13.75,19.75,3.89,20.25,9.45-1.75,12-6,11-20-4.89-20.75-4.68c-.6.16-8.3-12.39-15.33-16.29v14.6l1.23,9c4.54,3.12,12,8.41,16.2,12.38,6.4,6,20.9,0,20.9,0l16.41-4.5s2.59,13.22-5.66,14.86-24.3,6.64-31.65,2.89c-2.62-1.34-6.53-3-10.47-4.58,2.42,4.22,5.69,8.75,9,9.9,0,0,17.32.1,17.83-2.07.08-.47.14-.6,0,0h0c-.19,1.24-.41,4.85,2.84,4.56,4.5-.39,18.16-7.56,19.66-9.23s2.34,5.46,5.34,6.23,17.33-2.56,17.83-5.06,7-12.33,7-12.33,6.5-21.22,2.67-23.86-13.5-3.72-15.5-1.18-2.5,6.87-2.5,6.87-8.17-2.5-9.67-.83-5.5-6.56-12-4.86c0,0-4.5-7.89-7.17-8.43s-9.5-3.88-9.5-3.88l11.17,3.22S270.59,406.63,270.59,405.46Z"/><path class="cls-37" d="M288.5,281c15.75-5.5-2.75-3-2.75-3s-2.85,2.38-6.88,6.15l3.14,1.44A15.89,15.89,0,0,1,288.5,281Z"/><path class="cls-19" d="M253.25,326c6.75,15.25,15.86-2.5,15.86-2.5s2.6-26.39,12.9-37.91l-3.14-1.44C267.94,294.34,248.32,314.82,253.25,326Z"/><path class="cls-19" d="M234.25,421.26c.75-.21,16.5,3.7,20.75,4.68s6.5-5.48,6-11-12.5-6.7-20.25-9.45S243,391.71,243,391.71s12.25,2.5,9.47,0c-2.05-1.84-18.75-5.85-27.37-7.82-2.69,2-6.18,4.87-6.18,4.87V405C226,408.87,233.65,421.42,234.25,421.26Z"/><path class="cls-19" d="M268,451.32c8.25-1.64,5.66-14.86,5.66-14.86L257.25,441s-14.5,6-20.9,0c-4.23-4-11.66-9.26-16.2-12.38l1.77,13a74.57,74.57,0,0,0,4,8c3.94,1.58,7.85,3.24,10.47,4.58C243.7,458,259.75,453,268,451.32Z"/><path class="cls-38" d="M276.93,283.16s-31.33,16.72-33.67,33.32,0,60.18,0,60.18l-3.66,6.75s-10-2.44-12.34-1.05-8.33,6.34-8.33,6.34v30.82l3,22s6.33,15.67,13,17.94c0,0,17.33.1,17.83-2.06s-1.66,5,2.84,4.56,18.16-7.56,19.66-9.23,2.34,5.46,5.34,6.23,17.33-2.56,17.83-5.06,7-12.34,7-12.34,6.5-21.22,2.67-23.86-13.5-3.71-15.5-1.17-2.5,6.87-2.5,6.87-8.17-2.5-9.67-.84-5.5-6.55-12-4.86c0,0-4.5-7.89-7.17-8.43s-9.5-3.87-9.5-3.87l11.17,3.22s7.67-2.06,7.67-3.22,3.83,4.77,13,3.22,22.08-2.56,25.71-5.72,12.24-73.74,12.24-73.74-.55-28-8-30.26S276.93,283.16,276.93,283.16Z"/><path class="cls-39" d="M260.42,387.29s17.33,8.45,8.92,19.14"/><path class="cls-39" d="M223.25,412.29s7,11.17,10.5,11.67,6.5.33,10.17,5.67,2.17,6.16,7.5,5.83,15.05-4,14.61-8-.11-13.66-.11-13.66"/><path class="cls-39" d="M252.76,457.41s10.13-13.41,5.81-23.6"/><path class="cls-39" d="M275.75,421.26s12.34,16.24,1,32.39"/><path class="cls-39" d="M290.59,425.13s12.33,3.06,8.83,25.28"/><path class="cls-40" d="M226.59,421.26s7,13.95,6.66,25.53"/><path class="cls-41" d="M250,431.84l9.88-8.93s-9.38-7.57-13.5-3.2-.75,11.25,2.5,12.13"/></g><g id="Capa_20" data-name="Capa 20"><ellipse class="cls-42" cx="235.75" cy="350.77" rx="6.84" ry="8.19"/><path class="cls-43" d="M310.46,376.79V348.46l-3.21-13-59.16-12.33-4.8,4.38L283.75,339l-1.33,40c7.81,3.08,21.46,8.3,26.17,8.3C315.25,387.29,310.46,376.79,310.46,376.79Z"/><path class="cls-44" d="M243.29,327.51l-2.13,1.95s-4.41,6-5.07,21,10.16,25.83,10.16,25.83l30.5.5c.15,0,2.4.92,5.67,2.2l1.33-40Z"/><circle class="cls-45" cx="264.91" cy="353.55" r="6.84"/><circle class="cls-45" cx="301.41" cy="362.1" r="6.84"/><path class="cls-46" d="M231.3,323c0,.2,0,.4-.05.6-.23,9,3.26,8.4,8.07,6.89-.45-3.52-1-7.88-1.07-9.73S234.47,320.93,231.3,323Z"/><path class="cls-47" d="M292.93,318.75a56.08,56.08,0,0,0-21.29-3.46s-38.8-4.35-40.34,7.74c3.17-2.1,6.86-4.13,6.95-2.24s.62,6.21,1.07,9.73a49.19,49.19,0,0,1,5.37-1.52c-.17-3.16-.6-10.54-.6-10.54S273.3,318,292.93,318.75Z"/><path class="cls-48" d="M313.59,330.38a68.25,68.25,0,0,0-14.35-9c3.26,4.05,4.38,6.94-2,4.35-14.5-5.9-49.33-4.77-49.33-4.77v7.65c11-.72,45.87.31,55.67,11.35C314.09,351.79,313.59,330.38,313.59,330.38Z"/><path class="cls-49" d="M297.25,325.73c6.37,2.59,5.25-.3,2-4.35a66.18,66.18,0,0,0-6.31-2.63c-19.63-.8-48.84-.29-48.84-.29s.43,7.38.6,10.54l1.23-.21c.53-.06,1.21-.12,2-.18V321S282.75,319.83,297.25,325.73Z"/><path class="cls-50" d="M276.28,369s-41.44-6.08-40.8,4.73,12.63,6.63,12.63,6.63,29.59-6.14,62.55,20c0,0,13.29,1.66,8.79-5.68s-10.34-13.83-16.17-17S285.61,369.15,276.28,369Z"/><path class="cls-51" d="M245.75,371.46c-.68-1.14-6.67,1.39-10.38,3.1.91,7.1,7.25,6.86,10.56,6.24C246.16,377.9,246.47,372.65,245.75,371.46Z"/><path class="cls-52" d="M289.87,371.79a46,46,0,0,0-13.78-2.85s-41.45-6.08-40.81,4.72q0,.46.09.9c3.71-1.71,9.7-4.24,10.38-3.1s.41,6.44.18,9.34a15.61,15.61,0,0,0,2-.51s.64-.12,1.79-.26l-1-8.85S273.57,370.63,289.87,371.79Z"/><path class="cls-53" d="M319.25,394.63c-4.5-7.34-10.33-13.84-16.16-17a91.87,91.87,0,0,0-13.22-5.84c-.9-.07-1.83-.12-2.78-.18,1.31,5.31,1.15,9.72-3.67,8.42a26,26,0,0,0-14.91.74c11.33,2,26.25,7.08,41.95,19.54C310.46,400.31,323.75,402,319.25,394.63Z"/><path class="cls-54" d="M283.42,380c4.82,1.3,5-3.11,3.67-8.42-16.19-.92-38.34-.43-38.34-.43l1,8.85a66,66,0,0,1,18.8.74A26,26,0,0,1,283.42,380Z"/><path class="cls-50" d="M270.46,315.27s-40-4.5-40.38,8.33,6.83,6.17,14.66,5.17,47.17-.67,57.67,11.16,10-9.58,10-9.58S294,314.27,270.46,315.27Z"/><path class="cls-50" d="M238.89,331.41s-7.29,29.83,1.53,36.53"/></g><g id="Capa_21" data-name="Capa 21"><path class="cls-55" d="M53.25,404l33.34,9.84,9.31-22-2.15-.36v-2.68l-23-7.7v2.84l-8-1.18-3.5-9.91-51-23.16-1.33-2-5,20.42,43.67,20.65Z"/><polyline class="cls-56" points="70.25 384.91 70.25 399.02 83.59 402.96 83.59 393.94"/><path class="cls-57" d="M34.59,442.08l11-4.61v8.14l4,1.18,1.66,8.78s26.34,12.22,36,12.89S136.59,462,136.59,462l10.66-10.72,3.34,8.47,61.89-9.38a106,106,0,0,0,4.1-16.6h-9.23S99.59,444.46,88.92,445.61s-50.33-17-50.33-17c-12.72-2.16-26.41-14.41-35.24-23.74C8.68,419.26,34.59,442.08,34.59,442.08Z"/><path class="cls-58" d="M95.9,391.82l-9.31,22L53.25,404l-7.66-15.18L1.92,368.13l-.2.81,2.53,3.89s-4.33,15.3-1.66,29.35a16.59,16.59,0,0,0,.76,2.66c8.83,9.33,22.52,21.58,35.24,23.74,0,0,39.66,18.18,50.33,17,3.66-.39,18.77-1.91,37-3.73l-24.79-49.19C99,392.33,97.16,392,95.9,391.82Z"/><path class="cls-58" d="M199,402.18c-12.43.82-31.56-.7-50.12-2.83l15.69,38.7,42.83-4.24h9.23C218.89,419.37,218.16,400.92,199,402.18Z"/><path class="cls-58" d="M129.09,396.85l16.84,43,6.62-.66L137.64,398Z"/><path class="cls-59" d="M130.25,450.41l17.34-6.28-1.66-4.23-20,2Z"/><path class="cls-60" d="M101.17,392.69,126,441.88l20-2-16.84-43C117.61,395.29,107.58,393.73,101.17,392.69Z"/><path class="cls-59" d="M156.59,450.41l11-4.8-3.07-7.56-12,1.19Z"/><path class="cls-61" d="M137.64,398l14.91,41.25,12-1.19-15.69-38.7C145.06,398.92,141.31,398.46,137.64,398Z"/><path class="cls-62" d="M7.61,349l51,23.15,3.5,9.91,8,1.19v-2.84l23,7.7v2.68S167,403.57,198.3,401.51s13.54,48.22,13.54,48.22l-61.9,9.39-3.33-8.48-10.67,10.73s-39.66,7.08-49.33,6.42-36-12.89-36-12.89l-1.67-8.78-4-1.18v-8.15l-11,4.61s-29.33-25.83-32-39.89,1.67-29.36,1.67-29.36l-2.54-3.89L6.28,347Z"/><path class="cls-63" d="M225.75,462c2.42-3.22,1.35-16.16-.79-30.47l-22.82-.66c1.4,15.81,2.61,31.18,2.61,31.18Z"/><path class="cls-64" d="M199,400c.86,5.75,2.08,18.43,3.19,30.84l22.82.66c-2.54-16.95-6.57-35.82-8.09-42.74C210.44,389.58,203.7,395.16,199,400Z"/><path class="cls-65" d="M199.75,386s-3,9.17-1.5,10.82A11.65,11.65,0,0,1,199,400c4.75-4.86,11.49-10.44,17.92-11.24-.39-1.74-.62-2.74-.62-2.74Z"/><path class="cls-66" d="M207.06,393s12.21,42.05,7.58,60.62"/><path class="cls-50" d="M216.25,385.91s15.5,68,9.5,75.95l-21,.05s-5-63.52-6.5-65.18,1.5-10.82,1.5-10.82Z"/></g><g id="Layer_3" data-name="Layer 3"><path class="cls-30" d="M315.28,316.47l3.23-.45c-.61-2-2.5-4.88-4.57-7.58a26.65,26.65,0,0,0-5,1.31Z"/><path class="cls-67" d="M540.57,429.73l-1.64,2.94,1.82-.71Z"/><path class="cls-68" d="M345,421.49l-9.84,35.41s65.76,16.53,107.9.42L443,440.79l-12.34,6-.2,6.34a4.92,4.92,0,0,1-5.25,1.2c-3-1.24-12.75-2-12.75-2l-25.31-1.62,15.5-39.27L440,353s29.44-5.46,30.15-6.63-.1-11-.1-11l-10.33-17.58s-12.36,6.4-18.24,5.44-19.26-4.9-19.78-8.29,4.46-33.17,4.46-33.17l-9.15-.49s-31.7,16.51-35.74,17.53-53.44,12.75-58.94,10.29a15.05,15.05,0,0,0-8.42-.66c2.07,2.7,4,5.53,4.57,7.58,12.68-1.74,58.27-7.67,67.2-4.12,0,0-46.54,6.09-73.61,14.4-4.34,8.77-8.86,22.9-10.06,29.87l26.15,3.74Z"/><path class="cls-69" d="M527.06,359.11c-3.48-24.56-1.44-55-25.8-57.36l-27.05-15-45-24.94L307,300.47s3.53,3.81,6.64,8a14.33,14.33,0,0,1,8.21.66c5.34,2.46,53.43-9.27,57.37-10.29S414,281.28,414,281.28l8.91.49s-4.85,29.77-4.34,33.17,13.51,7.32,19.25,8.29,17.76-5.44,17.76-5.44l10.05,17.58s.8,9.79.11,11S436.36,353,436.36,353l-36.43,58.45-15.09,39.27,24.63,1.62s9.52.78,12.42,2a4.71,4.71,0,0,0,5.11-1.2l.19-6.34,12-6,.13,16.53c-41,16.11-105-.42-105-.42l9.59-35.41-16.39-61.58L302,356.17c-.08.51-.16,1-.21,1.43-1,9,15,44.45,15,44.45s-13.93,42.08-11.85,51.7,88.65,16.72,88.65,16.72c17.69,1.69,42.92-3.89,55.38-5.82,11.27-1.74,72.59-25.72,83.32-29.94l1.45-2.76Z"/><path class="cls-69" d="M318.51,316c.41,1.39.24,2.42-.86,2.79-1.58.53-3.55,3.44-5.55,7.49,27.07-8.31,73.61-14.4,73.61-14.4C376.78,308.35,331.19,314.28,318.51,316Z"/><path class="cls-70" d="M395,470.85s-89-7.1-91.13-16.72,12.18-51.71,12.18-51.71S299.6,366.94,300.67,358s10.57-37,15.83-38.81S306,300.8,306,300.8l125.67-38.69C458,308,483.84,324.26,505.67,302.06l31.71-6-5.19,63.39,7.06,75S464.64,463.1,451.92,465,413.18,472.53,395,470.85Z"/><polygon class="cls-68" points="329.58 308.13 321.55 312.46 405 301.71 417.76 278.99 381.6 293.4 329.58 308.13"/><polyline class="cls-68" points="447.13 327.51 462.37 320.04 453.29 314.53 438.71 326.3"/><path class="cls-68" d="M426.67,445.36s2.09,10.77-8.21,10.77S436.22,454,436.22,454l3.87-14.25Z"/><polygon class="cls-68" points="338.49 430.3 344.09 432.3 337.59 459.02 331.15 454.46 338.49 430.3"/><polyline class="cls-68" points="396.66 467.02 398.59 460.14 333.89 454.46 336.59 459.02"/><polygon class="cls-69" points="513.59 320.87 529.99 312.57 527.25 295.8 511.12 300.83 513.59 320.87"/><path class="cls-69" d="M320.51,315c.41,1.39.24,2.42-.86,2.79-1.58.53-3.55,3.44-5.55,7.49,27.07-8.31,73.61-14.4,73.61-14.4C378.78,307.35,333.19,313.28,320.51,315Z"/><polyline class="cls-69" points="438.5 318.56 441.05 324.96 445.42 322.95 446.68 315.76"/></g><g id="Layer_2" data-name="Layer 2"><path class="cls-71" d="M374.09,316.71s-30.5.16-43.5,20-9.67,41.5-9.67,41.5,14.67,68,46.33,71.83,43-2.17,43-2.17,25.67-12.66,28-18.5,14.84-47.66,11-57.83-16.83-30-29.33-38S391.75,315,374.09,316.71Z"/><path class="cls-72" d="M389.36,440c-8.93.62-30.34-2.86-46.08-7.7,6.47,8.93,14.4,15.7,23.86,16.83,31.51,3.74,42.78-2.12,42.78-2.12s25.55-12.38,27.87-18.08,14.76-46.59,10.94-56.53C446.91,367.67,443,360.75,438,354c-1.32,17.41-3.72,43.47-6.54,48C427.17,408.76,403.62,439.06,389.36,440Z"/><path class="cls-72" d="M321.92,378.29a206.94,206.94,0,0,0,10.79,33.32c6.59-5,15.26-8.9,14.88-9.48-.55-.83-12.26-32.26-24-46.87A64.18,64.18,0,0,0,321.92,378.29Z"/><path class="cls-73" d="M355.75,405.46s38.25-32.25,54.5-30.75S426.5,394,426.5,394l7.28-8.36c-.36-6-1.34-11-5.78-18.39-6.75-11.25-19-26.75-34-31.75s-20.5-4-20.5-4-41.25,1.75-44.5,39.25a56.68,56.68,0,0,0-.08,8.43C339.17,390.59,355.75,405.46,355.75,405.46Z"/><path class="cls-74" d="M433.78,381.4l-7.28,8.87s0-18.83-16.25-20.42-54.5,32.61-54.5,32.61-16.58-15.77-26.83-27.91c2,34.67,31.33,56.81,31.33,56.81a41.81,41.81,0,0,0,22.75,6.1c13.5-.26,37.25-7.42,38.75-10.34s13.25-21.74,12.5-34.47C434,388.29,434,384.71,433.78,381.4Z"/><path class="cls-75" d="M374,347.71s-34,.25-33.5,36.5C355.25,414.21,356,410,356,410s47.75,14,53.63,4.5,9.12-17.37,9-22.62.62-13.25-7.13-26S386,348.84,374,347.71Z"/><path class="cls-76" d="M379.57,352.84s-29.69-.88-30.94,23.75S362.75,404,362.75,404l39.63-.75s5.62-7.75,5.37-10.25,0-18.75,0-18.75-14.26-22-26.88-21.38S379.57,352.84,379.57,352.84Z"/><path class="cls-67" d="M373.34,330.46s-41.25,1.75-44.5,39.25,31.25,62,31.25,62a43.67,43.67,0,0,0,22.75,5.75c13.5-.25,37.25-7,38.75-9.75s13.25-20.5,12.5-32.5.5-17.75-6.25-29-19-26.75-34-31.75S373.34,330.46,373.34,330.46Z"/><path class="cls-30" d="M324.92,422.13c1.5,3.36,8.91,6.82,18.36,9.78a114.9,114.9,0,0,1-11.57-21.3C326.93,414.21,323.24,418.34,324.92,422.13Z"/><path class="cls-77" d="M394.59,314s4.5-4,3.66-7.37a11.13,11.13,0,0,0-3.66-5.5s5.8,6.66,11.73,3.66l2.77-3.08s-1.67,8.33,3,12.29-.84,0-.84,0-9.44-4.93-12.5-3A23.66,23.66,0,0,0,394.59,314Z"/><polygon class="cls-78" points="416.42 327.3 424.92 322.63 428.92 327.3 416.42 327.3"/><polygon class="cls-78" points="453.29 336.13 452.93 330.52 456.83 331.38 453.29 336.13"/><path class="cls-19" d="M274.25,236.36S280,231,290.63,231s-7.13,18.95-7.13,18.95Z"/></g><g id="Layer_4" data-name="Layer 4"><path class="cls-79" d="M339.59,410.46c-4.34-1.67-21.67-47.67-21.67-47.67l-15.33-2c-2,2,.79,12.67.79,12.67l4.33,9,18.17,9.18s5.25,24.25,3.25,28.12-4.13,4.5-4.13,4.5l-11.78-7c-2.83,6.46-6,13.36-7.47,15-2.87,3.38-4.25,16.13-4,19.13s23.84,9.79,23.84,9.79C323.59,452.13,343.92,412.13,339.59,410.46Z"/><path class="cls-80" d="M329.13,419.71c2-3.87-3.25-28.12-3.25-28.12l-18.17-9.18,10.79,22.3s-2.45,6-5.28,12.45l11.78,7S327.13,423.59,329.13,419.71Z"/><path class="cls-81" d="M329.75,406l-17.5-35.12L304.5,370l-1.12-.16c.37,1.81.73,3.16.73,3.16l15.12,31.25s-9.87,24.12-12.75,27.5c-1.73,2-2.92,7.47-3.53,12.12,2,.78,13,5,14.18,5S329.75,406,329.75,406Z"/><path class="cls-81" d="M302.63,359.81l15.33,2s17.34,46,21.67,47.67-16,41.66-14,50.66c0,0-23.58-6.79-23.83-9.79s1.12-15.75,4-19.12,12.75-27.5,12.75-27.5l-15.13-31.25S300.59,361.77,302.63,359.81Z"/><path class="cls-82" d="M335,401.57c-6.7-13.7-16.34-39.28-16.34-39.28l-15.33-2c-1.32,1.27-.61,6.18.06,9.51l1.12.16,7.75.88L329.75,406s-11.37,42.88-12.62,42.88-12.16-4.23-14.18-5c-.14,1-.24,2-.32,2.87v4l19.48,8.65.55.17.21-.51a38.94,38.94,0,0,1-1.49-6.68C321.2,449.39,330.21,418,335,401.57Z"/><path class="cls-83" d="M336.5,426.42c3.25-8.73,5.58-15.78,3.82-16.46-1.11-.43-3.05-3.72-5.33-8.39-4.78,16.41-13.79,47.82-13.61,50.77a38.94,38.94,0,0,0,1.49,6.68l9.38-21.93Z"/><path class="cls-81" d="M303,360.29l15.34,2s17.33,46,21.66,47.66-16,41.67-14,50.67c0,0-23.58-6.79-23.83-9.79s1.13-15.75,4-19.13,12.75-27.5,12.75-27.5L303.8,373S301,362.24,303,360.29Z"/></g><g id="Layer_5" data-name="Layer 5"><path class="cls-84" d="M447.1,354l-2.75,61.25,31.75,44.66L521.6,444l23.25-45.75-26.75-69S491.1,342.72,447.1,354Z"/><path class="cls-82" d="M460.75,429l17.5,25.5s10.25-6,10.75-7-18.75-23.25-18.75-23.25h-8.5Z"/><path class="cls-82" d="M469.75,371.21c.7-1.39,1.76-14.93,2.09-23.18-7.18,2.24-15.06,4.5-23.59,6.68l-1.57,35.06C457.15,384.88,469,372.69,469.75,371.21Z"/><path class="cls-85" d="M463.75,365.21l-3,42.75L487,448.84s12.5-4.63,13.5-7.13S537.25,400,537.25,400l-21.75-54.5Z"/></g><g id="Layer_6" data-name="Layer 6"><path class="cls-86" d="M326.36,399.41S349.63,417.93,384.5,413s68-17.3,68-17.3S504.25,370,506,363.71"/><path class="cls-87" d="M309.46,413.13l5.67-15.34h9s20.67,16.67,47.67,13c0,0,31.95,1.3,47.58-2.83s38-14.5,38-14.5,49.5-23.5,57.87-31.75l9.38-2.75,13.75,32.25-11,7.25s-46,16.25-69,19.5c0,0,11.5,36.75,10.75,41.25s-23.5,2.25-23.5,2.25l.25-35.5s-9.75.25-11.25-3.25l-5.75-.75s-7.5,21-6.75,25.75c0,0-19.75-13.5-21-13.5s1.5-7,1.5-7S348.55,428.29,309.46,413.13Z"/><path class="cls-88" d="M460.5,410.49s50.75-11.78,55.5-16-13.75-1.5-13.75-1.5l12.25-16.25-62,26.75,38.75-11.25Z"/><path class="cls-88" d="M312,412.21c13.5,11.25,92.75,6.25,92.75,6.25-5.58.09-18.54-3.33-32.61-7.66h-.22c-27,3.67-47.67-13-47.67-13h-9l-4.79,13A18.22,18.22,0,0,0,312,412.21Z"/><path class="cls-88" d="M449.75,457s8.5-2.75,8.5-3.75-5.75-27-5.75-27L448,429Z"/><path class="cls-88" d="M404.75,432.21,417,436.46l12.25-27.78H426.5S406,426.71,404.75,432.21Z"/><path class="cls-88" d="M429.25,414.46s7.5,1,7.75,0,5.25-11,5.25-11l-6.5,1.25S429.5,413,429.25,414.46Z"/><polygon class="cls-88" points="444.25 417.21 450 409.18 448 408.68 444.25 417.21"/><path class="cls-89" d="M309.46,413.13l5.67-15.34h9s20.67,16.67,47.67,13c0,0,31.95,1.3,47.58-2.83s38-14.5,38-14.5,49.5-23.5,57.87-31.75l9.38-2.75,13.75,32.25-11,7.25s-46,16.25-69,19.5c0,0,11.5,36.75,10.75,41.25s-23.5,2.25-23.5,2.25l.25-35.5s-9.75.25-11.25-3.25l-5.75-.75s-7.5,21-6.75,25.75c0,0-19.75-13.5-21-13.5s1.5-7,1.5-7S348.55,428.29,309.46,413.13Z"/><path class="cls-89" d="M313.5,403s28.25,12.75,33.25,12.75"/><path class="cls-89" d="M402.63,427.21s18.05-19.78,23.43-21.24"/><path class="cls-89" d="M444.25,425.94l2.25-2.14c2.75-2.61,9.25-13.06,9.25-13.06-.14-.63-10.75-11.16-10.75-11.16s-8.75,21.34-10,22.21-7-3.18-8.75-6.49S433.92,403,433.92,403"/><path class="cls-89" d="M490.75,391.71s-33.82,16.34-40,15.36"/><path class="cls-89" d="M506,390.21s25.75-10.25,26.75-13.5"/></g><g id="Layer_12" data-name="Layer 12"><path class="cls-90" d="M398.59,276.63,389.92,260s27.09-11.22,28.71-15.55,16.29-30,12.62-38.33l-9-9.67,6.67-4.67s1.33-37.33-3-42.33-9.74-16.67-9.74-16.67l7.74-8s-8.33-4-9.33-3-7.53-11.33-36.43-11c0,0-6.57-2.66,5.76-5.66s29-2,30.33-3.67,8.67-3.67,9.67-6.67-2,11.34,0,12.34,7.92,10.33,7.92,10.33v11l2.45,2.67,7.63-10.34,7.53-2,8.47-12.66v-4s33,4.66,34,15.33,35.34,68.05,35.34,68.05l10,96.78s-24.5,6.17-25.5,7.42-24.75,12-24.75,12l-14.62-22.12-6.25-.38-.38-7.37-7.75-.25,5-13.88-2.75-5.25L430.13,252l-13.88,1.45-11.12,14.88Z"/><path class="cls-21" d="M468,233.21l-6.5,14.92S467.75,255,468,257a72.05,72.05,0,0,1,0,7.5l5,4v6.75l13.75,14.25V264.21S467.25,236.46,468,233.21Z"/><path class="cls-21" d="M447.25,243.21,430.75,241l6.75-37.5-9.75-7.75,9.75-3.25s-4.5-35-5.75-36.25S422,134.46,422,134.46l3.5-8.75L416,120s-17.43-11.1-28.59-8.8c-6.53-2-7.53-3-5.16-3.7s16.38-2.75,16.38-2.75,21.5-1.12,22.25-3,.87,6.63,4.12,10.25,6.63,7.63,5.38,16,4.5,8.25,7,8.38a53.73,53.73,0,0,0,7.12-.5l-.75-11.25s4-4.38,6.38-3.88,10.75-2.25,10.75-2.25V105.71l19,3.75,7,8.75-41.25,56.13-3.88,6.5s-3.5,3.5-.75,9.25,16.5,14.12,16.5,14.12l5.13,4Z"/><polygon class="cls-91" points="436.61 127.98 433.98 133.46 441.42 134.29 441.42 122.63 436.61 127.98"/><polygon class="cls-91" points="457.75 118.63 448.96 119.8 457.75 107.3 457.75 118.63"/></g><g id="Capa_16" data-name="Capa 16"><ellipse class="cls-92" cx="435.97" cy="292.8" rx="10.98" ry="9.89" transform="translate(-54.11 104.06) rotate(-12.82)"/><path class="cls-93" d="M434.13,274.24a19.17,19.17,0,1,0,19.16,19.17A19.17,19.17,0,0,0,434.13,274.24Zm2,29.19a10.33,10.33,0,1,1,10.32-10.32A10.32,10.32,0,0,1,436.14,303.43Z"/><path class="cls-94" d="M522,283.82a12.33,12.33,0,0,1-3.25,1.41c-1.75.43-3.5,3.22-6.64,5s-1.86,1.09-5.11,1.44-7.75,4.08-8,4.2-7.5,2.75-7.5,2.75l-8.41-3.39s-2.59-1.56-3.09-2.93-2.5-2.29-4.24-4.15-1.55-2.79-1.55-2.79l1.05-2.52s-4-3.53-4.79-4.31a11.3,11.3,0,0,0-3.22-1.56s-.25-2.35-.25-3.73v-3.06l-2.88-2.35-3.79-2.09v-3.65l2-5.74v-2.69a57,57,0,0,1-7.7,3.74s-33.92-8.44-42.92-4.62c-3.16,1.35-2.14-.14.5-2.63-2.83,1-7.05,3-9.25,4.11-3.25,1.57-3.5,3.66-5.5,5.5s-2.75,5.2-4.5,7.55,0,8.26,0,8.26,9.25,5.83,10.25,5.14,7.5-3.74,9.75-5.14l16-9.83h21s1,6.19,2.4,7.5,2.37,9.47,2.29,12,3.08,5,4.52,7.07,8.31,10.79,8.31,10.79l6.25,9.1,9.34,6.36L496.75,313l18.75-8.11,17-11.17v-2.18Z"/><path class="cls-95" d="M411.75,252.78c9-3.82,42.92,4.62,42.92,4.62a57,57,0,0,0,7.7-3.74v-4.57s-18.12-.05-24.3,1.36-3.32-.88-6.65-.89a72,72,0,0,1-7.5,0c-3.83-.27-7.92.53-9,0a5.49,5.49,0,0,0-2.71.59C409.61,252.64,408.59,254.13,411.75,252.78Z"/><path class="cls-96" d="M532.83,293.74l-17,11.16L497.08,313l-13.67,5.54-9.33-6.35-6.25-9.1s-6.88-8.76-8.32-10.79-4.6-4.55-4.51-7.07-.91-10.68-2.3-12-2.39-7.5-2.39-7.5h-21l-16,9.83c-2.25,1.39-8.75,4.44-9.75,5.13s-10.25-5.13-10.25-5.13-1.75-5.91,0-8.26,2.5-5.7,4.5-7.55,2.25-3.93,5.5-5.5,10.91-5.23,12-4.7,5.12-.27,9,0a74.87,74.87,0,0,0,7.5,0c3.33,0,.46,2.3,6.65.89s24.29-1.36,24.29-1.36v7.26l-2,5.74v3.65l3.8,2.09,2.88,2.35v3.06c0,1.37.25,3.72.25,3.72a11.41,11.41,0,0,1,3.22,1.57c.78.78,4.79,4.31,4.79,4.31l-1.06,2.52s-.18.92,1.56,2.79,3.74,2.79,4.24,4.15,3.08,2.93,3.08,2.93l8.42,3.39s7.25-2.64,7.5-2.75,4.75-3.85,8-4.2,2,.34,5.11-1.44,4.89-4.57,6.64-5a12.33,12.33,0,0,0,3.25-1.41l10.5,7.71Z"/><path class="cls-97" d="M426.78,302.71c1,1.37,3.31,1.12,5.07.69a10.31,10.31,0,1,1,9.77-18.1,20.92,20.92,0,0,0-6.41-10.13c-.39,0-.78-.06-1.17-.06a19.06,19.06,0,0,0-10.69,3.26c-2.24,4.92-2.88,11-3.23,13C419.62,294.21,425.12,300.37,426.78,302.71Z"/><path class="cls-98" d="M463.79,184.82s-4.16,10.34-8.38,20.58c2.92,1.12,5.62,3.11,4.75,7.31-1.66,8-15.16,42.75-14.66,50,.22,3.18-4.71,3.57-10.31,3-1.44,5.38-2.89,10.91-3.27,12.91-.83,4.33-.83,14-.83,15.66s8.83,3,12.33,2.34c2.66-.51,2.72-4.38,2.6-6.21,0-.58-.1-1-.1-1l.33-7.33c4.17-20.17,3.84-15.17,8-34s21.51-48,21.51-48Z"/><path class="cls-99" d="M445.5,262.71c-.5-7.25,13-42,14.66-50,.87-4.2-1.83-6.19-4.75-7.31-3.75,9.11-7.55,18.13-8.49,19.68-2,3.28-8.35,28.21-8.35,28.21s-1.69,6.12-3.38,12.43C440.79,266.28,445.72,265.89,445.5,262.71Z"/><path class="cls-100" d="M445.42,289.48s.06.38.1,1c.12,1.83.06,5.7-2.6,6.21a19.68,19.68,0,0,1-4.91,0c-3.61-.33-7.42-1.28-7.42-2.38,0-1.66,0-11.33.83-15.66s6.65-25.34,6.65-25.34,6.35-24.93,8.35-28.21,16.87-40.27,16.87-40.27l12,15.28s-17.34,29.2-21.51,48-3.83,13.83-8,34Z"/><line class="cls-101" x1="431.42" y1="286.63" x2="438.5" y2="296.21"/><line class="cls-101" x1="444.67" y1="291.42" x2="432.75" y2="277.38"/><polyline class="cls-101" points="439.92 285.83 446.34 277.38 435.75 264.46"/><path class="cls-101" d="M438,255.54s9.67,12.17,10.25,12.42"/><line class="cls-101" x1="451.09" y1="257.71" x2="443.38" y2="262.23"/><line class="cls-101" x1="448.84" y1="251.21" x2="439.84" y2="256.96"/><line class="cls-101" x1="451.75" y1="253.54" x2="441.92" y2="242.04"/><polyline class="cls-101" points="453.92 245.71 444.67 232.71 457.17 225.79 460.09 228.29 451.09 217.04"/><path class="cls-101" d="M458,233.63c.36.32-8.33,4.75-8.33,4.75"/><line class="cls-101" x1="464.12" y1="221.02" x2="454.25" y2="208.46"/><polyline class="cls-101" points="468.67 209.04 457.01 212.38 454.67 205.46 469.56 201.4"/></g><g id="Layer_13" data-name="Layer 13"><path class="cls-102" d="M558.69,131.46c.1-3.33-41.77-22-45.1-23.67l-.46-.24c-1.25.73-2.66,1.56-4.15,2.45l5.52,3.46s-49.25,27-53.25,56c0,0,.23,8.66,9.48,13.41l6.77-1.66,5.75-4.25,7.5-2.75s11.25-12,12-12.25,10-8.75,10-8.75L508,146.46l6.5-4.25,4,6.67,6-3.92-7.25-6.25,7.25-5.45,5.75,1.7,8-6.75-4.75-3.5,2.5-1.5L552.1,136l-2.6,11.25s-40.29,27.24-62.62,35.35c-5.15,1.87-9.35,2.73-11.88,2a23.75,23.75,0,0,1-4.27-1.68l-5.21,1.27a50.64,50.64,0,0,0,19.73,6.07l36.5-19.75L552.1,155,563,143l2.06-2.56C562.33,137.67,558.62,133.57,558.69,131.46Z"/><path class="cls-103" d="M461.25,169.46c4-29,53.25-56,53.25-56L509,110c-8.08,4.83-18.71,11.54-21,14.71-3.75,5.25-40.75,38.75-31.5,51.5a29.11,29.11,0,0,0,9,7.93l5.21-1.27C461.48,178.12,461.25,169.46,461.25,169.46Z"/><path class="cls-104" d="M494.5,163.84l-3.5-4.13,15.38-17.5,14.75-11.5,15.75-11.12s18.25,8.5,18.87,10.62a33.85,33.85,0,0,1,.88,5.63l-15.25,20.37Z"/><path class="cls-102" d="M486.88,182.56c22.33-8.11,62.62-35.35,62.62-35.35L552.1,136,536,123.21l-2.5,1.5,4.75,3.5-8,6.75-5.75-1.7-7.25,5.45L524.5,145l-6,3.92-4-6.67-6.5,4.25,4.75,6.75s-9.25,8.5-10,8.75-12,12.25-12,12.25l-7.5,2.75-5.75,4.25-6.77,1.66a23.75,23.75,0,0,0,4.27,1.68C477.53,185.29,481.73,184.43,486.88,182.56Z"/><path class="cls-105" d="M446.38,164.59c.37-3.25,11.75-24,11.75-24S470,120.84,479.5,117c6.69-2.73,18.95-10.72,25.63-15.21a18.74,18.74,0,0,0-8.21-1.29c-7.33.67-22.67,17.33-29.33,21.67s-20.34,29.66-23.67,32.33c-2,1.62-2.94,9-3.5,15.51C442.18,169.16,446.09,167.1,446.38,164.59Z"/><path class="cls-106" d="M486.13,118.09c-1.25,2-30.5,34.25-30.13,35.37s-4.12,9.13-4,12.63,1.25,13.25,5,14.87c.49.21,1.58-.09,3.08-.77a26.78,26.78,0,0,1-3.58-4c-9.25-12.75,27.75-46.25,31.5-51.5,2.68-3.75,17.11-12.48,25.13-17.16-2.8-1.55-2.21-2.76-2.21-2.76a21.5,21.5,0,0,0-2.43-1.5C501.72,107.45,487.09,116.55,486.13,118.09Z"/><path class="cls-107" d="M466.5,198.46c2.27-.42-1-8.69-2.23-15.09a31.46,31.46,0,0,1-4.19-3.18c-1.5.68-2.59,1-3.08.77-3.75-1.62-4.87-11.37-5-14.87s4.38-11.5,4-12.63,28.88-33.37,30.13-35.37c1-1.54,15.59-10.64,22.36-14.8a26.34,26.34,0,0,0-3.36-1.54c-6.68,4.49-18.94,12.48-25.63,15.21-9.5,3.88-21.37,23.63-21.37,23.63s-11.38,20.75-11.75,24c-.29,2.51-4.2,4.57-6,5.38-.1,1.27-.2,2.51-.29,3.67C446,180,463.69,199,466.5,198.46Z"/><path class="cls-108" d="M476.24,188.55a44.26,44.26,0,0,1-12-5.18c1.26,6.4,4.5,14.67,2.23,15.09C463.69,199,446,180,440.13,173.64c-.2,2.7-.36,5-.54,6.15-.67,4.34,16.33,16.67,17.66,18.67s4,2,7.67,4,8.33-2.33,8.33-2.33l6.26,1.41,1.24-5.08S478.81,192.78,476.24,188.55Z"/><path class="cls-109" d="M473.26,199.53s-4.67,4.33-8.33,2.33-6.34-2-7.67-4-18.33-14.33-17.67-18.67,1-22.66,4.34-25.33,17-28,23.66-32.33,22-21,29.34-21.67,14,4.33,14,4.33-.67,1.34,2.66,3,45.2,20.34,45.1,23.67,9.24,11.67,9.24,11.67l2.66,16.66-34,12-26.66,10.67-24,20.53Z"/><path class="cls-109" d="M537.25,118.46s-54.06,39.23-57.65,54.65"/><rect class="cls-110" x="471.42" y="172.81" width="12.17" height="6.32" transform="translate(194.78 -247.17) rotate(36.02)"/><polygon class="cls-110" points="499.94 155.21 491.72 149.23 495.8 145.09 505.56 150.47 499.94 155.21"/><polygon class="cls-110" points="528.45 132.74 519.05 125.01 523.42 122.85 532.82 130.59 528.45 132.74"/><path class="cls-109" d="M473.09,189.29s-.33-.1-.88-.32c-3.15-1.19-13.76-5.64-15.46-12-2-7.5,8.17-26.85,8.17-26.85s42.83-42,45.17-42.65,27.16,11,27.16,11l21.44,14.28-10.94,10.39L510.92,161l-27.33,24.5Z"/><path class="cls-109" d="M464.17,151.59s31.63,14.55,35.77,19.21"/><path class="cls-109" d="M489,126.73s38.56,19.2,39.56,21.63"/></g><g id="Layer_11" data-name="Layer 11"><path class="cls-111" d="M522.5,350.78s-6.86-12.95-4.55-27.38,7.81-37.93,9.31-39.06-5.21,11.29-5.21,11.29-5.88-3.54-7.21-5.09-4.34-16.39-3.71-16.77,7.25,2,7.25,2l-6.69-3.18s-15.94-10.94-15.69-12S473.25,247.84,476,217s41.88-19.75,41.88-19.75l107,8.5s-1.25,24.88-1.5,25.13-3.25,18.87-4,19.5S623,239.09,623,239.09s12.14,13.37,12.26,17.37-4,12.25-4,12.25l-7.12-5.37,5.87,5.37s-1.57,74.13-17.66,84.11S522.5,350.78,522.5,350.78Z"/><path class="cls-112" d="M536.75,330.52s-9.18-3.75-9.18-4.5c0,0-.19-27.06,1.25-29.93s1-12.88,1-12.88L525.5,280s-3-7.25-2.75-8.68-21.62-13.44-21.87-18.57c0,0-4-1.25-4.13-5s-.12-7.37.69-7.25,8.13,5.07,8.13,5.07l8.25,5.43,6.12,2.38s2.06.56,2.25.56,7.63-5.44,8.75-6.87S562,231.71,563.63,232s24.5-3.37,24.5-3.37l27.06-1.13,1.2,24.55s3.11.69,3.2.45,2.08-4.33,2.08-4.33,4.08,3.75,4.58,6.16,2.09,7.84,1.34,8.17-5-.67-5.25-.17-2,5.92-2,5.92L606.59,268l-32.75,55L552.1,289.21l-8.6-23-3.63,2.07Z"/><path class="cls-113" d="M523.25,360.21s7.25,32.75,21.38,36.5,12.89-24.48,12.25-24.5-13-7-13-7Z"/><path class="cls-114" d="M520.63,345.46c-.31-.06-6-.94-4.31,3.69,1,2.78,2.84,8.83,4.13,13.22a2,2,0,0,0,.3.09c3.5.75,31.81,6,31.81,6l1.66-15.65c-5.36-1.21-16.42-3.68-16.65-3.68S520.94,345.52,520.63,345.46Z"/><path class="cls-115" d="M537.5,343.51c-2.75-.55-21-4.3-21-4.3s-5-.41-5,4.3,5.43,17.45,9,18.86c-1.29-4.39-3.12-10.44-4.13-13.22-1.69-4.63,4-3.75,4.31-3.69s16.62,3.63,16.94,3.63,11.29,2.47,16.65,3.68l.53-5.06S540.25,344.05,537.5,343.51Z"/><path class="cls-116" d="M516.5,339.17s-5-.41-5,4.3,5.75,18.2,9.25,18.95,31.81,6,31.81,6l2.19-20.71s-14.5-3.66-17.25-4.2S516.5,339.17,516.5,339.17Z"/><path class="cls-117" d="M548.63,392l-2.47.37-1.53,4.51s-9.41-1-10.13.93c-.4,1.09-2.63,3-4.51,4.55.11.5.21,1,.26,1.39.38,2.88,12.75,5.88,14.13,6.25l6.25-.62Z"/><path class="cls-118" d="M534.5,397.77c.72-1.93,10.13-.93,10.13-.93l1.53-4.51c-3.28.49-9.11,1.38-13,2.13-4.89.93-3.8,4.92-3.14,7.86C531.87,400.81,534.1,398.86,534.5,397.77Z"/><path class="cls-116" d="M544.38,409.46c-1.38-.37-13.75-3.37-14.13-6.25s-2.84-8.16,2.88-9.25,15.5-2.5,15.5-2.5l2,17.38Z"/><path class="cls-119" d="M532.42,402.18s-8.33,6.61-7.67,7.28-7.5-6.67-10.16-5.5-9.5,10.5-9.5,10.5h-1.83c2.6,3.25,5.62,7,6.24,7.86-.59-1.21-.76-8-.76-8l4.85-4.33s7.66,3.5,8.5,3.67,3.33-1.34,3.83-2.17,9.19,4.63,9.19,4.63.14,15.7.81,21.38-3.33,29-4,30.49-6,15.5-7,17.25-11.33,7.42-11.33,7.42-6-1.84-9.5-3.17-14.67-1.83-14.67-1.83c-2.67-2.67.33-6.5.67-8.17s7.66-2.83,9-3.67S512,478.13,512,478.13c.62-5.67,17.36-16,17.36-16-8.68-3.17-8.31-31.34-8.31-32.34s-3.67-3-4.17-2.16-12.17,7.83-12.17,7.83-18.74,6.89-22.56-5.83a14.3,14.3,0,0,1,2.7-13.77c-3.13.67-5.46,1.65-5.8,3.1-1.17,5-5.17,16.48,4,22.07s26.16-.9,28.41-1.74,5.25-6.16,5.25-6.16-2.5,26.34,4.34,30.42c0,0-6.5-2.59-8.34,3.91l-1.83,6.5s-5.5-9.67-12.83-5.67c0,0-15.84,2-11.84,18.34,0,0,.34,7,3.17,9.33h11.33l17.67,6.75,19.36-15.25,19.44-40.67,1.47-40.5Z"/><path class="cls-120" d="M509.5,422.31a.66.66,0,0,0,.09.15C509.65,422.52,509.61,422.46,509.5,422.31Z"/><path class="cls-112" d="M482.19,429.63c3.82,12.72,22.56,5.83,22.56,5.83s11.67-7,12.17-7.83,4.17,1.16,4.17,2.16-.37,29.17,8.31,32.34c0,0-16.74,10.33-17.36,16,0,0-11.62-3.17-12.95-2.34s-8.67,2-9,3.67-3.34,5.5-.67,8.17c0,0,11.17.5,14.67,1.83s9.5,3.17,9.5,3.17,10.33-5.66,11.33-7.42,6.33-15.75,7-17.25,4.67-24.82,4-30.49-.81-21.38-.81-21.38-8.69-5.46-9.19-4.63-3,2.33-3.83,2.17-8.5-3.67-8.5-3.67l-4.85,4.33s.17,6.81.76,8c.11.15.15.21.09.15a.66.66,0,0,1-.09-.15c-.62-.84-3.64-4.61-6.24-7.86-3.75,0-12.48.14-18.37,1.41A14.3,14.3,0,0,0,482.19,429.63Z"/><path class="cls-121" d="M532.42,402.18s-8.33,6.61-7.67,7.28-7.5-6.67-10.16-5.5-9.5,10.5-9.5,10.5-24.84-.5-26,4.5-5.17,16.48,4,22.07,26.16-.9,28.41-1.74,5.25-6.16,5.25-6.16-2.5,26.34,4.34,30.42c0,0-6.5-2.59-8.34,3.91l-1.83,6.5s-5.5-9.67-12.83-5.67c0,0-15.84,2-11.84,18.34,0,0,.34,7,3.17,9.33h11.33l17.67,6.75,19.36-15.25,19.44-40.67,1.47-40.5Z"/><path class="cls-122" d="M492.07,416.51s-8.81,1-6.77,7.77,6.13,6.19,6.13,6.19,6.88-1.54,5.91-2.29c-1.92-1.47-1-9.11-1-9.3C496.59,417,492.07,416.51,492.07,416.51Z"/></g><g id="Layer_14" data-name="Layer 14"><path class="cls-109" d="M639.92,206.13c-.83-3.5-4.83-8.84-4.83-8.84s-2.69-.16-6.68-.35c-.61,3.1-1.87,9.11-2.49,9.35-.83.34-38.37,1.34-38.37,1.34l-32.63,11.66-19.5,6.34L516.09,232s-23-21-23.84-22.33-9.16-19-9.16-20,11.5-18.34,11.5-18.34l34.5-18.5,56.16-14.5L595.59,141l.83,5.67.28.35c2.63-.51,3.81-1.36,3.89-2,.16-1.33-2-9.33-2-9.33s-6.34-4.67-8.84-5-12.16-2.17-13.16-2.17-11.34,2-11.34,2l-2.16,2.83-11-.83-3.35,4.33-5.16,3.67s-8.5-3-9-3-11.84,4.83-14.67,7-46.5,30.5-50.17,43.33,17.5,30.5,17.5,30.5l32.5,28s18.5-13.5,18.84-13.33,29.83-16.17,49.83-15.83A251.43,251.43,0,0,1,626.59,213l9.83.83S640.75,209.63,639.92,206.13Z"/><path class="cls-104" d="M595.59,141l-10.34-2.67-56.16,14.5-34.5,18.5s-11.5,17.34-11.5,18.34,8.33,18.66,9.16,20S516.09,232,516.09,232l19.33-6.33,19.5-6.34,32.63-11.66s37.54-1,38.37-1.34c.62-.24,1.88-6.25,2.49-9.35-11-.52-32.16-1.23-35,.85,0,0-46.84,3.84-68.18,27.5,21.34-23.66,68.18-27.5,68.18-27.5,2.82-2.08,23.94-1.37,35-.85.21-1.08.34-1.81.34-1.81-10.33-27.34-26.83-38.84-27.16-40.67-.29-1.57-3.87-6.19-4.89-7.48-2.73.52-7,.66-13.28-.19-12.33-1.66-26.17,2.17-26.17,2.17-11.33.33-30.66,12.33-34.83,13.5s-29.67,20.17-31.33,28.5,34.16,35.17,34.16,35.17S489.42,199.29,491.09,191s27.16-27.33,31.33-28.5,23.5-13.17,34.83-13.5c0,0,13.84-3.83,26.17-2.17,6.27.85,10.55.71,13.28.19l-.28-.35Z"/><polygon class="cls-102" points="509.25 201.13 492.92 191.79 513.42 175.96 525.75 188.54 509.25 201.13"/><polygon class="cls-102" points="532.09 185.13 519.59 172.13 541.75 160.29 556.25 172.71 532.09 185.13"/><path class="cls-102" d="M564.59,171.79l-13.84-13.33s24.17-6.17,25.5-5.67S589.92,167,589.92,167Z"/><polygon class="cls-102" points="597.42 166.63 583.92 152.77 597.42 153.96 609.04 166.63 597.42 166.63"/><polygon class="cls-102" points="601.42 172.71 615.2 190.46 622.99 190.46 612.34 172.71 601.42 172.71"/><path class="cls-102" d="M594.09,172.71h-5.5s.16,4.42-2,5.08-7.84,0-7.84,0l-3.33-3.16-7,1.33,13.83,17.33,24.17-2Z"/><path class="cls-102" d="M555.92,180.63l-1.24,1,1.57,4.37-1.57,2.58-7.26,3.25-5.67-3.25-5.66.92v2.33s2.57,3.17,3.37,4,3.63,4.17,3.63,4.17a42.05,42.05,0,0,0,4.5,3,10.58,10.58,0,0,0,4.51-.67c.65-.5,6.59-3.66,6.59-3.66a30,30,0,0,0,5.06-.84c2.5-.66,4.67-1.16,4.67-1.16s.67.33,0-1-.83-2-1.5-2.34a5.34,5.34,0,0,1-1.83-1.47c-1-1-1.5-2.53-2.67-3.28s-3.3-2.08-3.73-3.41A27.39,27.39,0,0,0,555.92,180.63Z"/><path class="cls-102" d="M527.26,195.29l1.66,1.17s4.67,3,5.33,4a22.62,22.62,0,0,1,1.84,2.54c.33.79.83.29,1,1.63a11,11,0,0,1,0,2.5l-1,1.66s-2.59,1.34-3.88,2.17-1,.83-2.29,2.17a18.62,18.62,0,0,1-4.17,2.66c-2.33.5-3.5.67-5,1s-.16,1.17-1.5.34-.83-.84-1.83-2.17-.67-1.67-2.17-2.67-.33,1.17-1.5-1-1.66-2.5-1.5-3-1.16-1.5,2-.66,1.34.83,4.34,1.33,3.66,1,4.66.5,2.17.33,2.5-1.33,1.84-1,1.5-2.5.84-1.42,0-2.63-1.5-1-1.5-2.54v-2.17c0-.83-1.33-.16,0-.83l1.34-.67Z"/><path class="cls-109" d="M511.12,169.79s35,36.63,35.13,40.57"/><path class="cls-109" d="M536.87,155.53s31.4,22.95,42.89,44.27"/><path class="cls-109" d="M573.25,146.48s32.88,33,38.5,49.93"/><path class="cls-109" d="M503.51,208s36.17-44.32,109.87-40.34"/><path class="cls-123" d="M518.92,205.46s-11.17-9.67-10.67-10,5.33-5,5.33-5l10.34,9.5Z"/><path class="cls-124" d="M534.42,177c.5,0,12.33,11.5,12.33,11.5l5.35-4.17-10.35-11Z"/><polygon class="cls-124" points="567.92 166.13 577.81 176.63 587.55 175.29 574.92 163.46 567.92 166.13"/><polyline class="cls-124" points="598.59 163.46 607.42 173.29 609.92 173.29 602.25 161.96 599.75 163.46"/><path class="cls-106" d="M635.59,214.13c3.33-2.61,3.64-6.74,3.77-9.08-2-.27-4.22-.52-6.61-.76-67-6.66-114.33,32.34-114.33,32.34l-31.83-23v3.1c15.06,14.5,34.16,29.9,34.16,29.9C550.92,211.63,634.93,214.64,635.59,214.13Z"/><path class="cls-125" d="M556.25,142.71c-11.14,4.46-48.75,23.5-51.5,24s-20.25,18.5-20.5,20.75,8.25,5.85,8.25,5.85h0c-2.2-2.75-3.58-4.52-3.58-4.52,4.5-15.16,40.33-27.33,47.17-31.83s31.16-9.67,36.16-10.33,11.84,0,18,0,8.17-.17,9.17-.67.33-3.17.5-5.33c.13-1.75-1.23-3.69-2-4.56C581.53,136.16,557.4,142.25,556.25,142.71Z"/><path class="cls-30" d="M537.74,139l4,1.76a11.34,11.34,0,0,0,2-1.66c.5-.67,2.67-1.34,2.67-1.34s.5.84,1,0c.25-.41.62-1,1-1.58a61.82,61.82,0,0,1-9-2.25Z"/><path class="cls-107" d="M635.59,197s-3.17.5-20.4-1-34.94,3.67-34.94,3.67c-23.5,3.16-33.66,10.16-33.66,10.16-7.5.34-23.84,15.5-23.84,15.5-5.66-1.93-22.76-22.65-30.25-32h0s-8.5-3.6-8.25-5.85,17.75-20.25,20.5-20.75,40.36-19.54,51.5-24c1.15-.46,25.28-6.55,41.63-6.64a2.82,2.82,0,0,0-.46-.44c-.5-.34-6.67-4.67-7.5-5.67s-22.83-1.33-23.5-1.33-4,5.16-4,5.16l-4.16-1.2a15.79,15.79,0,0,1-4.2,3.48c-1.23.57-3.37.49-5.63.14-.39.59-.76,1.17-1,1.58-.5.84-1,0-1,0s-2.17.67-2.67,1.34a11.34,11.34,0,0,1-2,1.66l-4-1.76-.49,1.43s-46,20-65.25,47.75c0,0,5.91,13.6,12.93,26.9.54.54,1.1,1.08,1.66,1.62v-3.1l31.83,23s47.33-39,114.33-32.34c2.39.24,4.58.49,6.61.76,0-.35,0-.66.06-.92C639.59,202.13,635.59,197,635.59,197Z"/><path class="cls-126" d="M537.25,140.46l.49-1.43-2.82-1.24s-19.83,10.84-27.67,13.34-34.83,30.66-34.83,30.66-1.5,2.17-3.67,11.67c-.83,3.65,6.65,12.34,16.18,21.65-7-13.3-12.93-26.9-12.93-26.9C491.25,160.46,537.25,140.46,537.25,140.46Z"/><path class="cls-127" d="M550.75,132.29c-.5.17-.66,1.5-1.25,2.34l-1.07,1.58c2.26.35,4.4.43,5.63-.14a15.79,15.79,0,0,0,4.2-3.48l-1-.3S551.25,132.13,550.75,132.29Z"/><path class="cls-109" d="M635.87,214.13c-.65.51-84.66-2.5-114.83,32.5,0,0-54.17-43.67-52-53.17s3.67-11.67,3.67-11.67,27-28.16,34.83-30.66,27.67-13.34,27.67-13.34l6.83,3a11.34,11.34,0,0,0,2-1.66c.5-.67,2.67-1.34,2.67-1.34s.5.84,1,0,1.49-2.33,2.08-3.16.75-2.17,1.25-2.34,6.5,0,6.5,0l5.17,1.5s3.33-5.16,4-5.16,22.66.33,23.5,1.33,7,5.33,7.5,5.67,2.66,2.83,2.5,5,.5,4.83-.5,5.33-3,.67-9.17.67-13-.67-18,0-29.33,5.83-36.17,10.33-42.66,16.67-47.16,31.83c0,0,26.5,34,33.83,36.5,0,0,16.33-15.16,23.83-15.5,0,0,10.17-7,33.67-10.16,0,0,17.71-5.17,34.94-3.67s20.39,1,20.39,1,4,5.17,3.84,7.17S639.71,211.13,635.87,214.13Z"/><path class="cls-109" d="M629.44,196.41S621.87,179,620.5,178s-11-18.23-13.81-19-8.45-12.37-8.45-12.37"/></g><g id="Escudo"><path class="cls-128" d="M539.46,501.34l2.46,1.45s92.33,6.34,102.67,0S680.25,406,680.25,406l-3.33-6.56,3.33-1.62s18-64.66,18.34-76c.07-2.57.44-7.19.94-12.83,1.69-19.15,4.86-50.08,3.06-53.17s-19.68-6.29-28.05-7.66c.57,12.24,1.15,31.86-.54,37.58-2.5,8.5-9.25,40.75-9.25,40.75l-16,2-2,12L651,354.21,640.25,391l-14,28-6,17.5-9.75,21.25s-23.5,16-48,3.25a127.12,127.12,0,0,1-13.06-7.76c-1.45,9.82-4.36,27.42-4.94,32C544,489.12,541.29,496.61,539.46,501.34Z"/><path class="cls-129" d="M610.57,457.71l9.75-21.25,6-17.5,14-28,10.75-36.75-4.25-13.75,2-12,16-2s6.75-32.25,9.25-40.75c1.68-5.72,1.1-25.34.54-37.58l-2.6-.41c-5.89,8.19-17.75,24.44-19.4,24.78-1.41.3-6.68-.84-10.38-1.71H612l-12-23.33-13-2s-2.83,2-3.5.83a7,7,0,0,0-5-3.83c-3-.5-6.66,2.67-6.66,3.17S561.15,241,561.15,241h-7.51c.16,20.63.54,65.29.93,66.25.5,1.25,1.75,64,1.75,64s-5.75,71.75-6,75.75c-.06.94-.37,3.23-.82,6.24A126.29,126.29,0,0,0,562.57,461C587.07,473.71,610.57,457.71,610.57,457.71Z"/><path class="cls-130" d="M571.09,393.6s49.33,27.86,50.5,32.86,42.5-27.17,42.5-27.17-4.67,29-5.5,29-27.84,27.17-29.67,27.5-8.17,32.67-8.17,32.67H597.59l4.33-30.5s-34.5-31.17-35.5-30.5S571.09,393.6,571.09,393.6Z"/><path class="cls-130" d="M620.59,282.29l26,1,2.66,47.84s8.17,10.83,10.17,12.33-29,19-29,19L604.59,350l-2.84-4.67s11.5-14.16,12.67-18.66,2.5-34.34,3-35.17S620.59,282.29,620.59,282.29Z"/><polygon class="cls-131" points="651.25 417.13 637.84 417.13 642.42 370.63 652.67 356.63 666.17 357.96 673.09 366.21 665 406.71 651.25 417.13"/><path class="cls-131" d="M665.79,349l-17.29-15.2,8.65-10.89,24.35-6.48-2.31,29.48s-5.86,10.42-5.83,10.42l-7.19-.57Z"/><path class="cls-132" d="M644.46,343.77l-14.25,14.75L619,342.16H584L574.21,362s11.5-6,18.5-5.5,16.5,8.25,15,26.5-2.75,24-5.25,28.5a32.26,32.26,0,0,1-6.75,8s-14.75,1-19.25,8.75l.5,20s21.5-11.75,29-11.25c0,0,7.32-2.15,13-1.66l25.47-49.58c1.42-11,3.64-21.26,7.06-24.26,0,0,.93,0,2.38.21l5.49-18.67A22.94,22.94,0,0,0,644.46,343.77Z"/><path class="cls-133" d="M668.4,368.21c4.69,5.75,1.56-20,1.56-20a38.71,38.71,0,0,0-11.09-4.7l-5.74,18.66C657.15,362.63,665,364,668.4,368.21Z"/><path class="cls-133" d="M618.12,436c6.12,1,10.38-2.25,26.07,10l9.31-15.25-12.23-12s.45-17,2.59-32.49L616.77,435.8C617.23,435.84,617.69,435.89,618.12,436Z"/><path class="cls-134" d="M644.75,446l8.75-15.25-11.5-12s1.25-49.5,9.5-56.75c0,0,12.5.5,17,6.25s1.5-20,1.5-20-13.25-9.25-25.5-4L630.25,359,619,342.6H584l-9.75,19.86s11.5-6,18.5-5.5,16.5,8.25,15,26.5-2.75,24-5.25,28.5a32.26,32.26,0,0,1-6.75,8s-14.75,1-19.25,8.75l.5,20s21.5-11.75,29-11.25c0,0,8.5-2.5,14.25-1.5S630,433.71,644.75,446Z"/><path class="cls-135" d="M628.25,371.46s-3,40.75-5.63,47.5"/><path class="cls-133" d="M681.5,321.71c2.5-5,0-27,0-27l.75.46.38,9.92s.42,12,.46,12.37-1.38,4.71-1.38,4.71l-4.29,4s-3.17,15.66-3.33,17.38-14,67-14,67L650.75,446,641,466.71l.25-9.5L619,454.46l-2.16,15.25c-1.69,4.5,2.16,21.5,2.16,21.5h20.77l11.75-22,22.25-75.61,16.75-86.14,5.25-43.25-20.35-3.47-2.15,29.05-6,24.17-3.58,15.45C672,327.15,680.24,324.24,681.5,321.71Z"/><path class="cls-136" d="M673.66,284.34s-17.16,7.29-19.57,8.45-1,23.59-1,23.59l8.46-1.34s9.53-16.65,9.62-17,5.86-9,5.86-9Z"/><path class="cls-132" d="M659.46,298.07c-1.48,2,0,15.06,0,15.06l9.65-1.43,4.19-15.41C667.88,296.42,660.39,296.81,659.46,298.07Z"/><path class="cls-137" d="M653.5,314.79c-1.08-1.16.38-21.5.38-21.5s13.38-2.84,19.79-9.07l1.73-23.48-.15,0s-6.25,10.5-7.25,13.5-22.75,11.25-22.75,11.25c1.75,3.75,0,47.75,0,47.75,2,0,10.25-1.59,18.42-3.8L667.25,314l.55-2.2L659.92,313C657.52,314.16,654.18,315.53,653.5,314.79Z"/><path class="cls-135" d="M681.5,294.72s2.5,22,0,27-32.25,11.5-36.25,11.5c0,0,1.75-44,0-47.75,0,0,21.75-8.25,22.75-11.25s7.25-13.5,7.25-13.5l20.5,3.5-5.25,43.25-16.75,86.14L651.5,469.22l-11.75,22H619s-3.85-17-2.16-21.5L619,454.47l22.27,2.75-.25,9.5L650.75,446l9.34-35.46s13.83-65.28,14-67,3.33-17.38,3.33-17.38l4.29-4s1.42-4.33,1.38-4.71-.46-12.37-.46-12.37l-.38-9.92Z"/><path class="cls-134" d="M681.5,294l-22.12,4.15-.58,15.44s9.19-2.67,11.29-2.69"/><polyline class="cls-135" points="641 466.72 636.92 479.46 625.44 478.13 625.44 468.96"/><polygon class="cls-131" points="673.67 284.22 682.92 276.63 681.17 293.8 671.21 295.46 673.67 284.22"/><path class="cls-135" d="M659.33,313.39c-.33,0-4.86,1.75-5.58,1.57s.17-21.67.17-21.67,12.83-3.58,13.67-4.83c0,0,8.94-5.56,9.89-7.37s5.44-4.46,5.44-4.46l-1.42,17.66"/><path class="cls-30" d="M600.13,300.36c1.87.77,2.12,12.1,2.12,12.1l6.25.67s1.13-17.54.13-19.79-14.5-5-14.5-5c-4.88-5.5-2.63-6-3.75-10.63s-11.13-5.5-11.13-5.5l-1,13.83-.44,9.08,2.69-.41C594.25,293.34,598.25,299.59,600.13,300.36Z"/><path class="cls-132" d="M605.25,458.29c.79-.77,1.48-1.39,2.09-1.89,0-.45-.08-.74-.21-.81-1.25-.75-22.25-.38-22.25-.38L583,465C595.8,465.24,601.37,462.11,605.25,458.29Z"/><path class="cls-30" d="M600.13,300.36c1.87.77,2.12,12.1,2.12,12.1l6.25.67s1.13-17.54.13-19.79-14.5-5-14.5-5c-4.88-5.5-2.63-6-3.75-10.63s-11.13-5.5-11.13-5.5l-1,13.83-.44,9.08,2.69-.41C594.25,293.34,598.25,299.59,600.13,300.36Z"/><path class="cls-132" d="M575.17,295.46s-2.33,24.38-.83,26.13a9.69,9.69,0,0,0,2.1,1.36l1.81-27.83Z"/><path class="cls-132" d="M621.63,286l-19.13-6.83s-9.87-20.5-10.87-20.87-26.13-6.88-27-5.75,0,43.7,0,43.7l-.39,92.47s-3.76,54.09-5.55,72.17a50.47,50.47,0,0,0,9.31,2.62c1.16-9.08,2.34-19,2-19.46-.62-.88,4.66-39.38,4.21-40.63s.95-41.45.95-41.45l1.22-37.55.07-1.51a7.3,7.3,0,0,1-1.57-1.36c-1.13-1.75.62-26.13.62-26.13l2.31-.34.44-9.08,1-13.83s10,.88,11.13,5.5-1.13,5.13,3.75,10.63c0,0,13.5,2.75,14.5,5s-.13,19.79-.13,19.79l-6.25-.67s-.25-11.33-2.12-12.1-5.88-7-19.63-5.65l-2.69.41L576.45,323c3.95,2.85,13.79,8.28,15.55,8.39,2.13.12,22.37,1.75,23.19,1.37s8.19-14.42,8.19-19.58S621.63,286,621.63,286Z"/><path class="cls-133" d="M557.88,466.72c-.86-.87-4.15,24-5.32,24.47,2-.21,45.44,0,45.44,0s5.25-6.62,5.63-10.37c.34-3.37,3.9-20.47,3.71-24.44-.61.5-1.3,1.12-2.09,1.89-3.88,3.82-9.45,6.95-22.27,6.75l-2.35,12.17-.75,1.63L566,478.59s1-7.21,2-15a50.47,50.47,0,0,1-9.31-2.62C558.32,464.68,558,466.88,557.88,466.72Z"/><path class="cls-138" d="M586.42,312.54s10.83,3.34,15.83-.08"/><path class="cls-139" d="M575.12,295s-1.75,24.37-.63,26.12,15,9.63,17.13,9.75,22.37,1.75,23.18,1.38S623,317.85,623,312.68s-1.75-27.08-1.75-27.08l-19.12-6.83s-9.88-20.5-10.88-20.88-26.12-6.87-27-5.75,0,43.71,0,43.71l-.39,92.46s-5.48,78.86-6.36,78-4.25,24.74-5.37,24.49,45.5,0,45.5,0,5.25-6.63,5.62-10.38,4.75-24.5,3.5-25.25-22.25-.37-22.25-.37l-4.25,22-.75,1.62-13.87-.25s4.62-33.62,4-34.5,4.65-39.37,4.2-40.62.95-41.46.95-41.46L576,324l1.88-38.42,1-13.83s10,.87,11.12,5.5-1.12,5.12,3.75,10.62c0,0,13.5,2.75,14.5,5s-.12,19.79-.12,19.79l-6.25-.66s-.25-11.33-2.13-12.11-5.87-7-19.62-5.64Z"/><path class="cls-132" d="M577.8,323.4s-3.09-2.38-2.79-3.13,1.38-24.91,1.38-24.91l4.74-.6Z"/><path class="cls-140" d="M550.25,447c.25-4,6-75.75,6-75.75s-1.25-62.75-1.75-64c-.38-1-.76-45.62-.92-66.25h-.16l-15,11.33s5,53,4.54,59,.33,61,.33,61l6.5,7.17-7.66,4s-.84,48.33-2.5,52.33-1.67,33.5-7.5,43.34l-4.84,15,12.21,7.21c1.83-4.73,4.55-12.22,5-16.13C545.25,479.21,550,451,550.25,447Z"/><path class="cls-141" d="M652.55,272.5c1.65-.34,13.5-16.59,19.4-24.78l-1.7-.26-15.33,3.67-12,19.66h-.76C645.86,271.66,651.14,272.8,652.55,272.5Z"/><path class="cls-142" d="M652.55,272.5c1.65-.34,13.5-16.59,19.4-24.78l-1.7-.26-15.33,3.67-12,19.66h-.76C645.86,271.66,651.14,272.8,652.55,272.5Z"/><path class="cls-135" d="M527.26,494l14.67,8.67s92.33,6.33,102.66,0,35.67-96.82,35.67-96.82l-3.33-6.56,3.33-1.62s18-64.67,18.33-76c.08-2.58.45-7.2.95-12.84,1.69-19.14,4.86-50.07,3.05-53.16-2.33-4-32.33-8.33-32.33-8.33L654.93,251l-12,19.67h-31l-12-23.33-13-2s-2.84,2-3.5.83a7,7,0,0,0-5-3.83c-3-.5-6.67,2.66-6.67,3.16s-10.67-4.66-10.67-4.66h-7.66l-15,11.33s5,53,4.55,59,.33,61,.33,61l6.5,7.17-7.67,4s-.83,48.33-2.5,52.33-1.66,33.5-7.5,43.33Z"/></g><g id="Capa_17" data-name="Capa 17"><path class="cls-143" d="M292.25,193.29c0,.84,6.34,39.5,0,48.84s26,20,26,20l51.34-21.3s12.67-11.7,15.67-14.37,5-19.67,2.66-21-59.29-13.64-59.29-13.64l-24.71,1.47Z"/><path class="cls-144" d="M346.42,227c4.34,5.26,4,19.79,2.73,32l51.61-23.61s-27.34-25.67-58.67-13.67c-1.09.42-2.14.88-3.16,1.37A12.16,12.16,0,0,1,346.42,227Z"/><path class="cls-145" d="M346.42,227a12.16,12.16,0,0,0-7.49-3.92c-15.33,7.37-23.19,22.78-27.18,35.4l17.3,9.71,20.1-9.2C350.4,246.78,350.76,232.25,346.42,227Z"/><path class="cls-146" d="M279.75,233.19l12.84,8.1s6-19.71,4.83-22.29c0,0-4.24-11.19-6-10.14s-5.24.74-5.24.74,2.73,13.29.9,15.86S281.59,234.66,279.75,233.19Z"/><path class="cls-147" d="M364.25,248.46s-1.5-21.25-1.5-19.75c0,1-5.5,2.1-10.3,3a18.82,18.82,0,0,1,2.14,5.89c.71,4.09-4.69,7.78-8.34,9.78a12.08,12.08,0,0,1,.25,2.55Z"/><path class="cls-148" d="M354.59,237.63a18.82,18.82,0,0,0-2.14-5.89c-2.43.46-4.68.89-5.95,1.22-3,.81-1,9.7-.25,14.45C349.9,245.41,355.3,241.72,354.59,237.63Z"/><path class="cls-149" d="M346.59,250c.25-2.5-3.75-16,0-17s16.25-2.75,16.25-4.25,1.5,19.75,1.5,19.75Z"/><path class="cls-150" d="M334.75,255.71l-4.25-19.08a16.12,16.12,0,0,0-8.25.69c1.75,3.28,3.9,7.42,4.67,8.72.68,1.14-3.68,2.66-8.11,3.87l1.73,4.05Z"/><path class="cls-147" d="M330.5,206.54c1.51.12-.41,4.3-2,7.61l8.25-2.19S329,196.31,328,195.26s-7,0-7,0c0,1.13,1.05,6.42,2.05,11.26A30.28,30.28,0,0,1,330.5,206.54Z"/><path class="cls-148" d="M328.5,214.15c1.59-3.31,3.51-7.49,2-7.61a30.28,30.28,0,0,0-7.45,0c.93,4.48,1.83,8.56,1.83,8.56Z"/><path class="cls-151" d="M321,195.42c0,2.17,3.87,19.82,3.87,19.82l11.88-3.15S329,196.44,328,195.39,321,195.42,321,195.42Z"/><path class="cls-152" d="M285,206.3s4.45,12.79,18.85,9.79,28.78-21.16,28.78-21.16l-28.78.33Z"/><path class="cls-148" d="M326.92,246c-.77-1.3-2.92-5.44-4.67-8.72A28.31,28.31,0,0,0,315,241l3.81,8.95C323.24,248.7,327.6,247.18,326.92,246Z"/><path class="cls-151" d="M330.5,236.63l4.25,19.08L320.54,254,315,241S323,235,330.5,236.63Z"/><path class="cls-147" d="M290.69,234.22c.74,2.88,1.27,6.06.69,7.87-.86,2.67-5.93-.23-9.08-2.38l5.7,17.51,12.75-2.5V233.47Z"/><path class="cls-148" d="M291.38,242.09c.58-1.81.05-5-.69-7.87l-9.94.75,1.55,4.74C285.45,241.86,290.52,244.76,291.38,242.09Z"/><polygon class="cls-151" points="300.63 254.72 300.63 233.47 280.63 234.97 287.88 257.22 300.63 254.72"/><path class="cls-153" d="M308.5,196.71l-4.43-.73c.39,5,1.25,15.23,1.81,17.48.45,1.81-5.3,0-9.87-1.84l-.76,3.49s15.75,3.35,17,1.35S308.5,196.71,308.5,196.71Z"/><path class="cls-148" d="M305.88,213.46c-.56-2.25-1.42-12.48-1.81-17.48l-4.32-.72c-.18.15-2.5,10.7-3.74,16.36C300.58,213.44,306.33,215.27,305.88,213.46Z"/><path class="cls-149" d="M299.75,195.71c-.25.2-4.5,19.86-4.5,19.86s15.75,3.34,17,1.34-3.75-19.75-3.75-19.75Z"/><path class="cls-147" d="M359,203l-6.75-6.28-5.06,7.77a9,9,0,0,1,1.69,3.11c0,.65-1.46,1.48-2.83,2.12l2.52,3.75Z"/><path class="cls-148" d="M348.88,207.59a9,9,0,0,0-1.69-3.11l-2.3,3.52,1.16,1.71C347.42,209.07,348.88,208.24,348.88,207.59Z"/><polygon class="cls-149" points="351.98 196.93 344.62 208.21 348.3 213.68 358.73 203.2 351.98 196.93"/></g><g id="Capa_18" data-name="Capa 18"><path class="cls-19" d="M273.09,235.63c-3.34,3.33-6.84,6.66-1,10.33s14.66,11.33,19.5,12.5,24.5,4.5,30.33,4.17,33.83-5.34,36.67-7.17,4.5,5.21,2.16,7.19-22,10.81-31,10-30.16.16-43-7-11.66,10.66-11.66,10.66,14.16,14.67,22.83,17.34c0,0,11,5.9,22.17,4.37s49.33-9.54,57.33-19.21,24.33-12.83,28.83-25.16c1-9.34-9.33-24-9.33-24s6.5,18,4.33,18-13.16,6.83-23.16,8.16-15,4.17-11-.33,20.83-11.33,22.33-15-3-7-4.16-5.67a7.09,7.09,0,0,1-2.8.64c-3.06,1.4-29.49,13.4-39.37,14-10.5.67-31.17,2.17-36.34,1.83s-21.5-4.33-21.5-4.33l-4.83-3.33-.17-7a13.76,13.76,0,0,0-2.29-1.81C276.07,234.41,274.26,234.46,273.09,235.63Z"/><path class="cls-154" d="M299.42,152.63c2.5-.17-5.83-4.27-5.83-4.27C296.77,142.17,323,128,336.68,121a32.82,32.82,0,0,0-5.09.38c-5,.94-42.17,18.25-48.34,27l-2.5,1.75h6.84l-12.84,1-.64.84C281.48,152.2,297.5,152.76,299.42,152.63Z"/><path class="cls-36" d="M278.09,195.79c1.66,0,16.5-4.66,16.5-4.66s9-17.17,2.33-23.84-23.17-8.5-23.17-8.5l-1.84-3.87c-2.86,4-6.74,10.06-6,12.21,1.17,3.33,15.67,3.67,15.67,3.67s-8.84,16-9,16.16-9,7.52-5.34,11.51,10.34,6.82,10.34,6.82l2.83-5.16-2.5,10s3.67-.17,4.33-.34c.25-.06,3.3-1.78,7.62-3.87l-5.45-2.13S276.42,195.79,278.09,195.79Z"/><path class="cls-36" d="M415.5,253c-.75-2.5-13.25-55.65-16.5-57.7s7.5-11.12,7.5-11.12,3.25-2.18,2.75-5.18-9-17.83-10.5-18.67S402,142.16,402,142.16s-17-11.37-24.75-13.53c-6.25-1.75-14.13-6-21.93-7,4.81,5.34,10.27,13,8.93,11.7-2-2-15.83-3-15.83-3s-12.83,5.17-3.17,3.84,17,8,17,8-7.66-3.37-13.83-4-12.83,3.83-17,6.83-3.83,32.33-1.41,40.17,17.91,12,27.41,11.66,18.83-11.16,20.67-12.65,6.16-9.51,7.66-10.5,3.34,8.15,3.84,12.32-15.84,14.5-15.84,14.5l4.84,7s5.5,13,0,11.5c-6.5-9.83-16.84-11.83-23.5-16.57-1.5-1.07-4.28-.94-7.68-.13,1.65.59,3.42,1.26,5.34,2,0,0,20,12.67,30,31l-.29.14a7.09,7.09,0,0,0,2.8-.64c1.17-1.33,5.66,2,4.16,5.67s-18.33,10.5-22.33,15,1,1.67,11,.33,21-8.16,23.16-8.16-4.33-18-4.33-18,10.33,14.66,9.33,24c-4.5,12.33-20.83,15.5-28.83,25.16S331.25,296.46,320.09,298s-22.17-4.37-22.17-4.37c-8.67-2.67-22.83-17.34-22.83-17.34s-1.17-17.83,11.66-10.66,34,6.16,43,7,28.67-8,31-10,.67-9-2.16-7.19-30.84,6.83-36.67,7.17-25.5-3-30.33-4.17-13.67-8.83-19.5-12.5-2.34-7,1-10.33c1.17-1.17,3-1.22,4.87-.81-1.82-1.15-4.51-2.24-7.21-1.11-4.75,2-8.25,7.25-8.25,7.25l14,13.25-8-5.25s-8.75,14.5-6,21.25,7,15.75,12.5,19,18,13.75,25.75,14.25c0,0,7.75,1.75,12.75,2.5s63.5-4.5,99-45.25C412.5,260.71,416.25,255.46,415.5,253Z"/><path class="cls-19" d="M355.09,202.39c6.66,4.74,17,6.74,23.5,16.57,5.5,1.5,0-11.5,0-11.5l-4.84-7s16.34-10.33,15.84-14.5-2.34-13.3-3.84-12.32-5.83,9-7.66,10.5-11.17,12.32-20.67,12.65-25-3.83-27.41-11.66S327.25,148,331.42,145s10.83-7.5,17-6.83,13.83,4,13.83,4-7.33-9.37-17-8,3.17-3.84,3.17-3.84,13.83,1,15.83,3c1.34,1.34-4.12-6.36-8.93-11.7a23.64,23.64,0,0,0-5.57-.13s-7.28-.58-13.07-.49c-13.68,7.06-39.91,21.2-43.09,27.39,0,0,8.33,4.1,5.83,4.27-1.92.13-17.94-.43-25.31-.7-.52.68-1.31,1.74-2.2,3l1.84,3.87s16.5,1.84,23.17,8.5-2.33,23.84-2.33,23.84-14.84,4.66-16.5,4.66,6.33,8,6.33,8l5.45,2.13c7-3.36,17.26-7.67,24.55-7.5.34,0,.67,0,1,.05,10.69.91,14-2.64,32,3.79C350.81,201.45,353.59,201.32,355.09,202.39Z"/><path class="cls-155" d="M345.09,135.18c7.33-1.39,18.66-3.76,26.66,14.93"/><path class="cls-155" d="M324.92,141.13s-9.17,9.93-14.67,10-12.83,0-12.83,0"/><path class="cls-155" d="M302.09,147.07s7.5,3.69,9.08,4"/><path class="cls-156" d="M302.09,190.21s-3.84-5.58,0-7.25S303.92,189.13,302.09,190.21Z"/><path class="cls-156" d="M317.59,190.21s-9.34-5.75-6.42-11.08S318.92,185,317.59,190.21Z"/><path class="cls-157" d="M297.25,155.3s-22,13.16-12.5,42.17C284.75,197.47,290.25,152.77,297.25,155.3Z"/><path class="cls-158" d="M284.6,164.4a12.18,12.18,0,0,0-6.36,1.8,11,11,0,0,1,2.95-.41,10.35,10.35,0,1,1,0,20.68,11,11,0,0,1-5.62-1.53,12.26,12.26,0,1,0,9-20.54Z"/><path class="cls-159" d="M354.18,144a22.92,22.92,0,0,1,11.24,19.45c0,12.87-11.19,23.3-25,23.3a26.74,26.74,0,0,1-8.46-1.37A24.05,24.05,0,1,0,354.18,144Z"/><path class="cls-160" d="M365.42,163.43A22.92,22.92,0,0,0,354.18,144,24.05,24.05,0,0,0,332,185.36a26.74,26.74,0,0,0,8.46,1.37C354.23,186.73,365.42,176.3,365.42,163.43Z"/><circle class="cls-161" cx="347.09" cy="166.97" r="24.06"/><circle class="cls-162" cx="354.65" cy="169.09" r="2.12"/><path class="cls-163" d="M279.4,237.23s-4.75-4.91-9.5-2.91-8.25,7.25-8.25,7.25l14,13.25-8-5.25s-8.75,14.5-6,21.25,7,15.75,12.5,19,18,13.75,25.75,14.25c0,0,7.75,1.75,12.75,2.5s63.5-4.5,99-45.25c0,0,3.75-5.25,3-7.75s-13.25-55.66-16.5-57.71,7.5-11.11,7.5-11.11,3.25-2.18,2.75-5.18-9-17.84-10.5-18.67,3.25-18.14,3.25-18.14-17-11.36-24.75-13.53-18-8.16-27.5-7.16c0,0-13.17-1.06-18.17-.12s-42.16,18.25-48.33,27l-2.5,1.74h6.83l-12.83,1s-10,12.7-8.83,16,15.66,3.67,15.66,3.67-8.83,16-9,16.17-9,7.52-5.33,11.51,10.33,6.82,10.33,6.82l2.84-5.17-2.5,10s3.66-.16,4.33-.33,20.35-11.64,32.17-11.38c.34,0,.67,0,1,.06,11.66,1,14.5-3.35,37.33,5.82,0,0,20,12.67,30,31,0,0-29.17,13.5-39.67,14.17s-31.16,2.16-36.33,1.83-21.5-4.33-21.5-4.33l-4.83-3.34Z"/><path class="cls-160" d="M292,176.13a10.56,10.56,0,0,0-10.77-10.34,11,11,0,0,0-2.95.41,12.22,12.22,0,0,0-2.67,18.74,11,11,0,0,0,5.62,1.53A10.56,10.56,0,0,0,292,176.13Z"/><circle class="cls-161" cx="285.15" cy="176.13" r="12.26"/><circle class="cls-164" cx="281.17" cy="181.88" r="1.09"/><path class="cls-165" d="M256.25,272.21s11.74,0,12.71-4"/><path class="cls-165" d="M274.25,281s-5.75,4.5-7,4.5.62-2.25.62-2.25"/><polyline class="cls-165" points="304.25 298.96 303.59 308.46 305.09 307.63"/><polyline class="cls-165" points="334.75 297.13 337.64 297.13 336.92 308.46 336.2 307.77"/><polyline class="cls-165" points="376.5 284.34 378.16 280.96 383.25 290.46"/><path class="cls-165" d="M396.75,268.18a19.72,19.72,0,0,0,6.5,9.78L405,276"/><path class="cls-36" d="M406.09,156.13s-16.5,9-19.17,6.33,7.33-27.06,11-28.2S406.09,156.13,406.09,156.13Z"/><path class="cls-166" d="M397.28,195.29l-10.9,6.94-2,1.25s7.71,11.65,6.52,15.48"/><path class="cls-155" d="M381.08,204.48a27.77,27.77,0,0,0,5.3-2.25"/><path class="cls-135" d="M553.43,240.83s3.82,105.44,2.82,107.2-.59,106.52-16.79,153.31"/></g></g></svg>