<svg xmlns="http://www.w3.org/2000/svg" viewBox="0 0 386.33 76.68"><defs><style>.cls-1{fill:#171e51;}</style></defs><title>Recurso 3</title><g id="Capa_2" data-name="Capa 2"><g id="Capa_3" data-name="Capa 3"><path class="cls-1" d="M0,0,30.09,30.18,60.19,0V61H46.58V31.45L30.09,47.94,13.6,31.45V61H0Z"/><path class="cls-1" d="M81.09,61,65.45,18.53h13.6l8.84,26.86,8.84-26.86h13.6L88.91,76.68H75.31Z"/><path class="cls-1" d="M112.79,30.86A30.87,30.87,0,0,1,168.9,13.09l-10.29,8.42a17.58,17.58,0,0,0-15-8.42c-9.77,0-17.17,8.08-17.17,17.77s7.4,17.76,17.17,17.76a17.57,17.57,0,0,0,15-8.41l10.29,8.41a30.87,30.87,0,0,1-56.11-17.76Z"/><path class="cls-1" d="M175.18.68H188V61H175.18Z"/><path class="cls-1" d="M195.58,39.78a22.11,22.11,0,1,1,22.11,21.94A22,22,0,0,1,195.58,39.78Zm31.29,0c0-5.86-3.91-9.94-9.18-9.94s-9.19,4.08-9.19,9.94,3.92,9.95,9.19,9.95S226.87,45.65,226.87,39.78Z"/><path class="cls-1" d="M247.35.68h12.83v20.4a14.87,14.87,0,0,1,9.36-3.23c12.58,0,20.57,10.29,20.57,21.93s-8,21.94-20.57,21.94a14.81,14.81,0,0,1-9.36-3.15V61H247.35Zm12.83,32.47V46.5A8.47,8.47,0,0,0,267.41,50c6.12,0,9.78-4.59,9.78-10.2s-3.66-10.2-9.78-10.2A8.54,8.54,0,0,0,260.18,33.15Z"/><path class="cls-1" d="M295.37,39.78a22.11,22.11,0,1,1,22.1,21.94A22,22,0,0,1,295.37,39.78Zm31.29,0c0-5.86-3.92-9.94-9.19-9.94s-9.18,4.08-9.18,9.94,3.91,9.95,9.18,9.95S326.66,45.65,326.66,39.78Z"/><path class="cls-1" d="M354.36,39.61,339.83,18.53H354.7l8,12.16,8-12.16h14.88L371,39.61,386.33,61H371.45l-8.76-12.76L353.94,61H339.06Z"/></g></g></svg>