<svg xmlns="http://www.w3.org/2000/svg" viewBox="0 0 386.33 400.76"><defs><style>.cls-1{fill:#171e51;}.cls-2{fill:#8c191d;}.cls-3{fill:#8f191d;}</style></defs><title>Recurso 2</title><g id="Capa_2" data-name="Capa 2"><g id="Capa_3" data-name="Capa 3"><path class="cls-1" d="M38.14,75.83C38.91,75.83,190.31,0,190.31,0L342.23,75.83V234.64l-152,76.08-152-75.32Z"/><polygon class="cls-2" points="51.52 96 183.95 162.72 183.95 295.08 51.52 228.34 51.52 96"/><polygon class="cls-2" points="328.84 96 196.42 162.72 196.42 295.08 328.84 228.34 328.84 96"/><path class="cls-3" d="M328.84,83.27,196.42,16.46V49.31H184V16.46L51.53,83.27,184,150.07V118.14h12.47v31.93ZM184,101.8V65.65h12.47V101.8Z"/><path class="cls-1" d="M0,324.08l30.09,30.18,30.1-30.18v61H46.58V355.53L30.09,372,13.6,355.53v29.59H0Z"/><path class="cls-1" d="M81.09,385.12,65.45,342.61h13.6l8.84,26.86,8.84-26.86h13.6L88.91,400.76H75.31Z"/><path class="cls-1" d="M112.79,354.94a30.87,30.87,0,0,1,56.11-17.77l-10.29,8.42a17.58,17.58,0,0,0-15-8.42c-9.77,0-17.17,8.08-17.17,17.77s7.4,17.76,17.17,17.76a17.57,17.57,0,0,0,15-8.41l10.29,8.41a30.87,30.87,0,0,1-56.11-17.76Z"/><path class="cls-1" d="M175.18,324.76H188v60.36H175.18Z"/><path class="cls-1" d="M195.58,363.86a22.11,22.11,0,1,1,22.11,21.94A22,22,0,0,1,195.58,363.86Zm31.29,0c0-5.86-3.91-9.94-9.18-9.94s-9.19,4.08-9.19,9.94,3.92,9.95,9.19,9.95S226.87,369.73,226.87,363.86Z"/><path class="cls-1" d="M247.35,324.76h12.83v20.4a14.87,14.87,0,0,1,9.36-3.23c12.58,0,20.57,10.29,20.57,21.93s-8,21.94-20.57,21.94a14.81,14.81,0,0,1-9.36-3.15v2.47H247.35Zm12.83,32.47v13.35a8.47,8.47,0,0,0,7.23,3.48c6.12,0,9.78-4.59,9.78-10.2s-3.66-10.2-9.78-10.2A8.54,8.54,0,0,0,260.18,357.23Z"/><path class="cls-1" d="M295.37,363.86a22.11,22.11,0,1,1,22.1,21.94A22,22,0,0,1,295.37,363.86Zm31.29,0c0-5.86-3.92-9.94-9.19-9.94s-9.18,4.08-9.18,9.94,3.91,9.95,9.18,9.95S326.66,369.73,326.66,363.86Z"/><path class="cls-1" d="M354.36,363.69l-14.53-21.08H354.7l8,12.16,8-12.16h14.88L371,363.69l15.31,21.43H371.45l-8.76-12.76-8.75,12.76H339.06Z"/></g></g></svg>